<svg version="1.1" id="Layer_1" xmlns="http://www.w3.org/2000/svg" xmlns:xlink="http://www.w3.org/1999/xlink" x="0px" y="0px"
	 width="100%" viewBox="0 0 326 448" enable-background="new 0 0 326 448" xml:space="preserve">
<path fill="#6BC1F0" opacity="1.000000" stroke="none" 
	d="
M325.000000,449.000000 
	C218.311905,449.000000 111.623802,449.000000 4.468133,448.531342 
	C4.000656,302.040924 4.000235,156.019165 4.005189,9.997405 
	C4.005274,7.500561 4.070375,5.003719 4.567987,2.463711 
	C7.362917,2.397661 9.695019,2.352926 12.027078,2.355036 
	C113.155106,2.446543 214.283157,2.525699 315.411133,2.665019 
	C324.670502,2.677775 324.647461,0.749971 324.647522,11.690973 
	C324.648376,154.973053 324.646301,298.255157 324.662750,441.537231 
	C324.663025,444.024811 324.882690,446.512421 325.000000,449.000000 
M229.991241,308.985626 
	C229.991241,308.985626 229.984116,308.958740 230.552444,308.880798 
	C231.032532,308.588928 231.512634,308.297058 232.418060,307.791382 
	C232.418060,307.791382 232.894089,307.788391 233.395920,308.290436 
	C234.297073,308.504211 235.198212,308.717987 236.368790,308.924896 
	C236.368790,308.924896 236.595169,309.071167 236.209961,309.816162 
	C236.177078,311.765350 236.144180,313.714508 236.106857,316.258881 
	C236.301514,316.799805 236.496170,317.340759 236.856369,318.704041 
	C236.918503,320.098328 236.980637,321.492584 237.028000,323.514679 
	C237.238220,324.295349 237.448441,325.076050 237.867905,326.568909 
	C240.635040,328.525238 243.520126,330.339783 246.117447,332.500244 
	C247.338486,333.515900 249.036209,335.451263 248.768143,336.538361 
	C245.263824,350.748566 245.195038,365.793640 237.923950,380.576111 
	C242.846161,381.442932 247.421844,382.248718 252.128387,383.863434 
	C254.138336,398.182068 257.220886,412.376160 257.756622,426.471771 
	C258.392029,426.372284 259.702362,426.167114 260.512787,426.040222 
	C261.251007,417.006470 261.989166,407.973785 262.727325,398.941132 
	C263.060913,398.931152 263.394531,398.921143 263.728119,398.911133 
	C265.348022,405.606049 266.967926,412.300964 268.587799,418.995880 
	C268.870270,419.056580 269.152710,419.117279 269.435181,419.177948 
	C270.625702,407.455322 271.816254,395.732666 273.901245,383.907867 
	C277.542603,383.608856 281.182648,383.292664 284.825684,383.015564 
	C288.733063,382.718384 290.001526,381.435516 288.248230,377.253418 
	C283.621826,366.218109 279.951477,354.764343 274.984497,343.895752 
	C271.766602,336.854492 272.086334,330.712494 275.296112,324.014099 
	C279.916382,314.371979 278.133972,304.661530 275.576538,294.813904 
	C278.312744,294.196228 281.107727,293.765533 283.774628,292.927368 
	C293.412292,289.898438 299.283112,283.320831 300.351868,273.292816 
	C301.314880,264.257172 298.197296,256.681580 289.619415,251.222702 
	C278.150330,244.745544 265.288025,247.664017 258.125336,258.254913 
	C252.219574,266.987335 252.916199,281.926392 264.290161,289.488342 
	C264.859741,289.686951 265.429291,289.885559 265.957947,290.027832 
	C265.957947,290.027832 265.907532,290.075806 266.266571,290.662323 
	C268.173584,291.535736 270.080566,292.409149 272.036163,293.979248 
	C272.370453,295.346954 272.704773,296.714691 273.076324,298.920502 
	C272.962738,300.312439 272.849152,301.704346 272.410950,303.593750 
	C272.312775,304.182709 272.214630,304.771637 272.188629,306.172424 
	C272.071564,307.800720 271.954498,309.429016 271.464294,311.587311 
	C271.327393,312.437714 271.190521,313.288116 270.867706,314.658508 
	C270.519287,315.084625 270.170868,315.510742 269.413788,315.723785 
	C269.012604,315.491119 268.611420,315.258484 267.846527,314.424255 
	C265.826904,313.010315 263.953827,311.250519 261.733673,310.309937 
	C260.364502,309.729889 257.725891,309.749542 256.949951,310.634064 
	C254.949173,312.914734 253.667114,315.825867 252.203827,319.004272 
	C252.358047,319.317841 252.512283,319.631409 252.837891,320.647644 
	C252.760223,321.118073 252.682541,321.588470 252.349976,322.292999 
	C252.193420,322.465393 252.067810,322.657959 251.793915,323.492371 
	C251.606613,324.113281 251.419312,324.734192 250.383087,325.347839 
	C248.229416,324.795776 246.075745,324.243713 243.734833,323.457642 
	C243.599579,323.309387 243.447540,323.181000 242.965118,322.353241 
	C241.236008,317.846191 239.506897,313.339172 238.055130,308.028351 
	C238.623123,306.524231 238.821243,304.685394 239.825333,303.575958 
	C243.501617,299.513977 244.844421,294.746674 244.885376,288.438141 
	C244.884003,288.100800 244.882614,287.763458 244.335938,287.103973 
	C242.577881,284.706024 240.819824,282.308044 239.014877,279.976471 
	C239.014877,279.976471 239.090424,279.946533 238.871841,279.423370 
	C238.239700,279.036774 237.607574,278.650208 236.406403,277.811951 
	C228.127136,273.428894 218.831207,275.877075 214.393860,283.609192 
	C209.935287,291.378326 212.156509,300.270294 220.210297,305.662354 
	C222.495682,306.824188 224.781067,307.986023 227.013855,309.556305 
	C227.013855,309.556305 226.988220,309.967316 226.535828,310.585175 
	C225.345291,316.389282 224.154770,322.193359 222.167984,328.003296 
	C221.369858,328.029755 220.571747,328.056244 219.090103,328.062988 
	C218.182739,327.970367 217.275375,327.877716 216.094467,327.109436 
	C216.111298,326.400726 216.128143,325.691986 216.343231,324.782501 
	C216.483582,324.505981 216.440018,324.254272 216.097137,323.176544 
	C215.895004,315.734985 213.864410,312.126312 208.986389,310.539520 
	C205.082138,309.269440 200.898621,311.430542 199.918198,315.946472 
	C199.992798,319.196075 200.067413,322.445648 199.461426,325.962708 
	C195.394943,328.591827 191.328445,331.220947 186.695084,334.216583 
	C185.307526,328.816528 184.090546,324.080231 182.931763,318.494934 
	C182.956284,317.644836 182.980804,316.794739 183.604614,315.582214 
	C191.885834,312.734283 197.390396,307.105286 200.607101,298.496399 
	C200.743774,298.026947 200.880447,297.557495 201.011688,296.274323 
	C201.115738,295.468384 201.219788,294.662445 201.644913,293.245697 
	C202.040802,291.563721 202.644363,289.892578 202.732956,288.194580 
	C202.769699,287.490295 201.705460,286.728546 200.748535,285.379333 
	C196.120346,271.029755 186.171051,265.101013 171.432434,267.150116 
	C171.758133,265.700409 172.368698,264.504852 172.219803,263.412811 
	C170.512787,250.892853 155.982346,240.434265 143.591400,242.705521 
	C132.805801,244.682510 125.993362,251.375748 121.335938,261.511047 
	C120.552063,262.019073 119.768188,262.527100 118.083511,263.027191 
	C110.790390,262.127106 104.165169,264.053955 99.795151,269.865509 
	C96.714951,273.961761 95.209435,279.242188 92.446983,284.015259 
	C91.887611,284.368195 91.328232,284.721100 90.768860,285.074066 
	C91.225647,285.056305 91.682434,285.038513 92.292542,285.625519 
	C92.536507,286.394440 92.780479,287.163361 93.059868,288.443665 
	C93.242844,288.909485 93.425819,289.375305 93.840904,290.617615 
	C95.558167,294.150513 97.275421,297.683441 98.734177,301.756866 
	C98.069229,303.393982 97.404282,305.031128 96.159523,307.025116 
	C93.776855,310.360870 91.058220,313.510742 89.086746,317.074036 
	C85.753693,323.098175 81.694244,327.302643 74.062103,324.825500 
	C74.043633,324.561768 74.025169,324.298035 74.229240,323.326691 
	C74.429672,321.375732 74.630104,319.424774 75.244179,316.799164 
	C75.639420,314.842224 76.034660,312.885284 76.429901,310.928345 
	C74.055725,310.758423 71.434410,309.871246 69.364540,310.584442 
	C66.154831,311.690430 63.321030,313.887360 59.204975,316.272430 
	C61.757877,319.728516 64.053894,322.836853 66.240562,326.048706 
	C66.240562,326.048706 66.095840,326.007050 66.052696,326.627319 
	C66.034554,327.041473 66.016403,327.455597 65.155861,328.147888 
	C61.442402,327.581207 57.734688,326.972626 54.013531,326.462067 
	C51.406834,326.104431 50.399212,324.869537 50.751476,322.132416 
	C51.297260,317.891663 51.503857,313.607239 52.025810,308.582947 
	C52.409065,307.625854 52.792320,306.668762 54.012142,305.674042 
	C66.581451,305.756073 74.343872,299.945526 77.664665,288.021484 
	C77.957314,286.970703 78.511223,285.992676 79.566628,284.956757 
	C80.092598,284.666656 80.618568,284.376587 81.144547,284.086517 
	C80.178589,283.721466 79.212631,283.356415 78.043587,282.201965 
	C77.006889,274.754669 73.985809,268.579773 66.479187,264.433441 
	C54.690475,258.927032 42.390415,262.671936 36.576000,273.537781 
	C30.835562,284.265381 34.797329,296.689911 45.973854,303.388794 
	C47.265751,304.163086 48.165592,305.591492 48.893005,307.388428 
	C47.966305,308.869232 46.690037,310.239990 46.182144,311.852692 
	C44.939667,315.798035 44.287136,319.935333 42.954617,323.844513 
	C41.668045,327.618927 42.153069,329.940247 46.212734,331.559235 
	C49.878178,333.020966 53.126118,335.496857 56.717613,337.186646 
	C59.862442,338.666260 60.667580,340.457123 59.482399,343.846161 
	C55.271488,355.887299 59.148277,367.962738 58.862633,379.981537 
	C61.471664,380.372437 63.258934,380.640198 65.107338,381.742676 
	C66.413551,393.130707 67.669571,404.524872 69.060783,415.902527 
	C69.414536,418.795563 70.197861,421.636047 70.783798,424.500702 
	C71.120102,424.396973 71.456398,424.293213 71.792702,424.189484 
	C73.555817,412.474548 75.318939,400.759644 77.082054,389.044708 
	C77.598030,389.015656 78.113998,388.986572 78.629967,388.957520 
	C79.162331,391.944153 80.120888,394.929504 80.129898,397.917725 
	C80.144394,402.728424 79.245972,407.544098 79.297035,412.351654 
	C79.325630,415.044159 80.488792,417.724609 81.140747,420.410461 
	C81.648987,420.309509 82.157227,420.208527 82.665459,420.107574 
	C84.512283,412.525787 86.708931,405.006836 88.085571,397.340668 
	C89.037460,392.039825 88.857155,386.535675 89.924858,380.925720 
	C90.215309,379.048492 91.046455,377.067719 90.709885,375.310608 
	C88.224716,362.336426 85.506760,349.406830 82.726845,335.801605 
	C90.319328,334.034180 92.209129,326.630615 95.434059,320.436066 
	C97.293709,316.863953 98.455597,312.928589 100.458046,308.686157 
	C101.432457,307.385712 102.406860,306.085236 104.064201,304.977783 
	C107.942482,306.024750 111.782951,307.305267 115.727356,307.943787 
	C116.638695,308.091278 117.905556,306.042389 119.727257,305.100464 
	C121.362274,309.035309 124.695496,310.383362 128.264313,311.633514 
	C126.504578,316.247040 128.195206,319.621735 132.389603,322.608002 
	C132.620789,323.059814 132.851974,323.511597 132.398407,324.439575 
	C121.500221,326.389923 120.847168,325.931183 120.004433,315.730927 
	C119.990730,315.565094 120.055542,315.357117 119.977837,315.237793 
	C119.331932,314.246063 118.661079,313.270569 117.997772,312.290161 
	C117.104675,313.132355 115.683037,313.835205 115.417419,314.842804 
	C114.615562,317.884644 114.326843,321.057373 113.722374,324.156494 
	C112.210716,331.906738 112.380569,332.638824 119.997581,333.619354 
	C124.776367,334.234528 124.866211,335.824158 124.000526,340.074615 
	C122.154480,349.138641 121.153008,358.386780 120.093475,367.592590 
	C119.706284,370.956696 121.233894,372.830811 125.209770,371.776031 
	C125.870857,376.544098 126.909714,381.297638 127.093979,386.084076 
	C127.307205,391.622986 127.244202,397.261627 126.430534,402.727417 
	C125.505745,408.939789 123.520737,414.987640 122.180862,421.147095 
	C121.164154,425.820923 122.233185,426.978912 126.285271,426.914978 
	C126.878174,424.307800 127.137291,421.848969 127.994064,419.619873 
	C132.730240,407.297852 140.686554,396.228912 142.432358,381.925262 
	C143.096710,384.138428 143.716843,385.651764 143.996796,387.225586 
	C145.972641,398.332794 148.028458,409.429535 149.728668,420.579956 
	C150.356903,424.700012 152.387390,425.178314 154.511993,424.700287 
	C154.511993,419.851990 154.241150,415.578522 154.560760,411.349731 
	C155.701294,396.258850 156.918930,381.185364 154.505646,366.078979 
	C158.379868,364.587006 162.254105,363.095032 166.128326,361.603058 
	C166.125610,361.088684 166.122894,360.574341 166.120178,360.059967 
	C158.568604,355.356720 150.093704,351.404236 149.421021,340.444824 
	C151.096664,340.282837 152.524109,340.056549 153.956345,340.020599 
	C163.523010,339.780396 164.009293,339.825867 164.630875,330.449982 
	C164.926651,325.988647 168.069229,321.048584 164.359238,316.165955 
	C168.868790,316.620453 173.378342,317.074951 177.948700,318.442902 
	C178.002747,319.049347 178.056808,319.655792 178.198517,321.078949 
	C178.675278,325.370605 179.076614,329.672272 179.644867,333.951782 
	C180.751297,342.284485 180.955399,342.433807 188.800446,342.455109 
	C186.559448,356.785583 184.322174,371.092316 181.932465,386.373901 
	C184.396332,387.289856 187.731171,388.529572 191.035583,390.674866 
	C192.462616,402.565918 193.245972,414.573578 196.161469,426.194916 
	C196.926270,426.143890 197.691071,426.092865 198.455872,426.041840 
	C198.968018,414.083710 199.480179,402.125580 200.737137,390.071930 
	C201.484131,390.116608 202.231125,390.161285 203.041290,390.979675 
	C206.144028,402.430267 209.246765,413.880859 212.459122,425.736023 
	C218.223846,425.070374 216.033936,420.384277 215.688950,417.224792 
	C214.700790,408.175293 213.252014,399.176086 212.856537,390.037506 
	C218.552185,389.637604 224.307312,389.411041 229.352615,384.641418 
	C222.358093,379.522736 219.709457,372.492706 218.234772,364.315430 
	C221.124985,360.633575 219.781387,357.128052 218.283951,353.272980 
	C216.475052,348.616058 215.440369,343.658386 214.623566,338.283722 
	C219.468964,338.573029 224.314362,338.862305 229.886459,339.194977 
	C229.886459,329.317871 229.886459,319.786621 229.943359,309.616364 
	C229.950699,309.402924 229.958054,309.189484 229.991241,308.985626 
M198.960526,241.427322 
	C198.639587,241.268951 198.318634,241.110580 197.470825,240.471924 
	C191.255127,238.543823 186.306519,240.260849 183.909683,245.177307 
	C181.582779,249.950272 182.895599,254.628754 187.928467,258.662079 
	C188.315186,258.794739 188.701889,258.927429 189.324600,259.201324 
	C189.324600,259.201324 189.594162,259.146790 190.287003,259.620636 
	C196.696548,260.488220 200.960083,258.415833 202.913864,253.483078 
	C204.615997,249.185730 203.249619,244.931580 199.086639,241.869812 
	C199.086639,241.869812 199.147507,241.946045 198.960526,241.427322 
M87.557335,255.491852 
	C95.041733,258.246063 102.731163,254.214203 104.930710,246.382370 
	C107.207298,238.276154 102.474472,230.728745 93.155510,228.990494 
	C91.824219,228.994827 90.488388,228.929428 89.162415,229.015564 
	C83.437241,229.387558 77.641273,235.562607 77.116623,241.800369 
	C76.637978,247.491089 81.170677,253.553558 87.557335,255.491852 
M242.254242,226.737991 
	C238.420883,226.167999 234.579941,225.090073 230.755951,225.147202 
	C225.034225,225.232651 218.023407,232.188477 217.099640,237.904953 
	C215.710373,246.502029 218.813431,254.006180 225.506882,257.532959 
	C229.318405,258.349304 233.133926,259.858734 236.940598,259.836731 
	C244.687653,259.791901 251.172562,253.275848 252.735382,244.946228 
	C253.999649,238.207855 249.617874,230.145981 242.254242,226.737991 
M105.861191,79.848206 
	C105.723167,79.708588 105.585152,79.568970 105.779892,78.824066 
	C107.000748,76.283737 108.499901,73.834541 109.369484,71.179176 
	C110.375542,68.107063 110.870285,64.431702 107.115280,63.000580 
	C103.566238,61.647953 101.128227,64.543556 100.496124,67.464859 
	C98.686020,75.830292 97.382164,84.312401 96.150429,92.788048 
	C95.967888,94.044098 97.252235,95.513321 97.857918,96.883911 
	C99.087769,95.776115 100.661438,94.872963 101.470055,93.514442 
	C102.814201,91.256187 103.667244,88.705612 104.727119,86.278145 
	C105.164787,86.448402 105.602463,86.618660 106.040131,86.788910 
	C105.769875,88.556015 104.976601,90.451096 105.369308,92.055962 
	C105.804337,93.833771 107.138977,96.554588 108.405289,96.748062 
	C112.225922,97.331810 116.208015,96.990334 120.118614,96.816795 
	C124.066017,96.641624 128.343460,95.137367 131.853821,96.224831 
	C135.745712,97.430458 136.059143,95.694649 137.000793,93.244621 
	C137.885406,90.943031 139.000198,88.729904 140.096649,86.293579 
	C141.599930,88.495537 142.336044,90.232193 143.623978,91.308678 
	C145.644211,92.997246 147.871399,94.837997 150.315384,95.514618 
	C153.120544,96.291214 156.382675,96.398827 159.195633,95.734924 
	C160.522491,95.421768 161.264191,92.629288 162.701553,90.246529 
	C158.933884,91.575684 156.558563,92.413643 154.497650,93.140694 
	C156.695526,89.871300 158.838394,87.182053 160.291382,84.161003 
	C160.640900,83.434273 158.973618,80.843483 157.769760,80.415543 
	C151.967682,78.353096 149.561249,83.169685 146.899796,86.923378 
	C146.240280,84.374397 145.699493,82.284248 145.158707,80.194107 
	C142.460983,81.277428 139.763275,82.360756 137.392487,83.312790 
	C136.960556,82.469666 136.355850,81.289291 135.751144,80.108910 
	C134.635483,81.148552 133.139130,81.999649 132.505905,83.278214 
	C131.802216,84.699066 132.131836,86.601875 131.561218,88.126266 
	C130.903305,89.883781 129.753113,91.457016 128.816696,93.110275 
	C128.270096,92.885483 127.723488,92.660683 127.176888,92.435890 
	C127.470421,90.077141 127.547630,87.665192 128.111359,85.372887 
	C128.842712,82.398956 127.618408,81.227402 124.913864,80.485580 
	C120.433296,79.256607 116.244659,82.071747 114.234627,87.738029 
	C113.575127,89.597183 112.439766,91.287529 111.522011,93.055069 
	C110.975960,92.827232 110.429909,92.599388 109.883858,92.371552 
	C110.237892,89.960312 110.558968,87.543671 110.953575,85.139091 
	C111.570442,81.380112 110.676529,79.138863 105.861191,79.848206 
M215.179840,95.589531 
	C220.431061,95.804535 225.682022,96.026077 230.933670,96.230232 
	C232.365448,96.285889 233.803772,96.228653 235.230820,96.334557 
	C236.516388,96.429947 238.188660,97.281654 238.997482,96.748550 
	C241.751465,94.933334 244.025864,96.010788 246.814911,96.617516 
	C249.177139,97.131409 252.154617,95.850311 254.541351,94.701736 
	C255.474991,94.252441 255.539841,91.997795 256.081116,90.314262 
	C252.829834,91.600037 250.510788,92.517136 248.191742,93.434242 
	C247.991501,92.968857 247.791260,92.503471 247.591019,92.038086 
	C248.821228,91.348480 250.127045,90.764488 251.266815,89.948532 
	C254.148575,87.885506 255.861526,85.068153 253.565155,81.873077 
	C251.244537,78.644318 247.866241,79.444588 245.198425,81.576385 
	C243.751709,82.732414 242.887131,84.723953 242.031601,86.471588 
	C241.540482,87.474800 241.884308,88.919296 241.325653,89.848541 
	C240.646561,90.978142 239.413040,91.774414 238.419357,92.714890 
	C237.973236,91.298203 236.938751,89.752617 237.214447,88.494049 
	C237.664444,86.439751 239.256912,84.656891 239.855896,82.609840 
	C241.336121,77.551254 242.800903,72.452339 243.641815,67.267456 
	C243.854538,65.955727 241.901245,63.278217 240.586670,63.015980 
	C239.247543,62.748844 236.821320,64.320328 236.024261,65.736015 
	C234.586639,68.289482 233.562943,71.269264 233.186752,74.177124 
	C232.737656,77.648392 231.336487,79.544922 228.246063,81.396141 
	C225.869537,82.819733 224.699692,86.274567 223.025513,88.847122 
	C222.124588,90.231499 221.291519,91.660042 220.427841,93.068665 
	C219.892105,92.817207 219.356369,92.565750 218.820633,92.314301 
	C219.095337,90.061005 219.627274,87.800499 219.564285,85.556686 
	C219.512848,83.724533 218.750900,81.912331 218.303970,80.091286 
	C217.203415,81.704765 215.843430,83.204803 215.074524,84.963303 
	C214.289871,86.757828 214.542404,89.127892 213.478271,90.638290 
	C212.676331,91.776573 210.513489,91.956062 208.956390,92.562325 
	C208.965439,91.102737 208.504486,89.421936 209.068527,88.223557 
	C211.042770,84.028984 213.370544,80.000809 215.121521,76.734833 
	C217.443649,76.734833 219.454132,76.944771 221.360474,76.592018 
	C221.857178,76.500107 222.431442,73.808853 222.289597,73.741356 
	C220.422562,72.852837 218.433563,72.220604 216.138184,71.404343 
	C216.138184,70.409851 216.510239,68.790718 216.045029,67.465485 
	C215.449112,65.767937 214.404968,63.293095 213.140137,63.011410 
	C211.694397,62.689445 209.260773,63.994152 208.215698,65.338020 
	C206.630768,67.376091 205.455658,69.958847 204.856461,72.487900 
	C203.787842,76.998245 203.473969,81.685432 202.448547,86.208908 
	C201.990082,88.231308 200.573669,90.036545 199.592010,91.940338 
	C199.133850,91.726181 198.675705,91.512032 198.217560,91.297874 
	C198.217560,88.864609 199.142227,85.675018 197.949753,84.217125 
	C196.824356,82.841240 193.473282,83.059448 191.097794,83.041855 
	C190.122467,83.034622 189.138123,84.246986 188.157898,84.904579 
	C188.906723,85.618019 189.643219,86.344971 190.407486,87.041443 
	C191.347519,87.898087 192.310715,88.729309 193.263901,89.571526 
	C192.106506,90.500740 191.068771,91.980125 189.770676,92.262474 
	C184.571762,93.393288 180.276184,90.882133 179.150482,86.437546 
	C177.544342,80.096039 180.705276,72.682228 185.834274,70.761093 
	C190.115326,69.157578 191.748322,70.219513 192.536209,74.791870 
	C192.723404,75.878174 193.703690,76.827805 194.319168,77.840302 
	C195.366074,76.938644 196.909790,76.237686 197.369827,75.098946 
	C198.958832,71.165634 195.867722,66.773170 191.299377,66.075485 
	C181.928986,64.644447 174.239456,71.606255 173.267548,82.400848 
	C172.462006,91.347702 177.998093,96.869308 187.950821,97.056160 
	C188.716293,97.070534 189.480621,97.146919 190.409607,97.204697 
	C187.939606,100.662605 185.288879,103.640472 183.607269,107.090683 
	C182.940155,108.459442 183.908371,112.029869 185.050964,112.540115 
	C186.681442,113.268204 190.041779,112.841087 191.083939,111.590874 
	C193.128174,109.138535 194.697845,105.904335 195.344269,102.763268 
	C196.322449,98.010201 198.709793,95.014557 203.373337,93.352455 
	C206.266632,98.153572 210.205887,97.691582 215.179840,95.589531 
M78.573074,75.829155 
	C77.368401,71.642532 79.992989,70.359802 83.289276,70.087212 
	C86.061523,69.857971 89.034172,69.690468 89.758835,73.734573 
	C90.004326,75.104568 91.338737,76.279457 92.175529,77.543510 
	C92.983063,76.055756 94.720833,74.311394 94.396561,73.135849 
	C93.797050,70.962517 92.204147,67.651588 90.644470,67.424133 
	C86.274559,66.786812 81.234001,66.316994 77.332703,67.915619 
	C71.180809,70.436470 71.480949,78.451080 77.343849,81.833374 
	C79.920052,83.319565 82.979584,84.040810 85.375244,85.737053 
	C86.614952,86.614815 86.883987,88.863510 87.591560,90.492821 
	C84.899979,91.329041 82.217850,92.724304 79.512901,92.770050 
	C78.121246,92.793594 76.612373,90.484642 75.300735,89.093666 
	C74.358994,88.094971 73.656250,86.870911 72.846886,85.747391 
	C72.002449,87.012062 70.159340,88.750862 70.493996,89.455765 
	C71.669800,91.932465 73.148331,95.150108 75.343369,96.043304 
	C78.358749,97.270302 82.192902,97.106125 85.564590,96.671715 
	C89.363724,96.182220 92.363914,94.040466 92.993629,89.734161 
	C93.632225,85.367264 91.223412,82.932709 87.697929,81.116699 
	C84.772484,79.609756 81.894760,78.010178 78.573074,75.829155 
M279.198364,115.855095 
	C279.593079,115.134865 280.405914,113.844315 280.319183,113.780746 
	C279.189819,112.952805 277.996826,111.916733 276.691895,111.698578 
	C275.091705,111.431068 273.371002,111.884293 271.371307,112.054031 
	C270.779846,113.458946 270.044250,115.206337 268.850006,118.043121 
	C271.031097,117.548668 273.180328,117.554344 273.378082,116.935944 
	C274.584381,113.163795 276.805847,116.060959 279.198364,115.855095 
M205.714783,287.897888 
	C206.338669,288.242828 206.962570,288.587738 207.586456,288.932678 
	C207.698883,288.667206 207.811325,288.401733 207.923767,288.136261 
	C207.287384,287.942047 206.651001,287.747833 205.714783,287.897888 
M86.912491,285.616028 
	C86.912491,285.616028 87.149780,285.450256 87.149780,285.450256 
	C87.149780,285.450256 86.841957,285.470917 86.912491,285.616028 
z"/>
<path fill="#A9F2FD" opacity="1.000000" stroke="none" 
	d="
M4.105138,2.506876 
	C4.070375,5.003719 4.005274,7.500561 4.005189,9.997405 
	C4.000235,156.019165 4.000656,302.040924 4.000279,448.531342 
	C3.000973,449.000000 2.001945,449.000000 1.001459,449.000000 
	C1.000000,300.312439 1.000000,151.624878 1.390842,2.524995 
	C2.556169,2.244076 3.330653,2.375476 4.105138,2.506876 
z"/>
<path fill="#FFFFFF" opacity="1.000000" stroke="none" 
	d="
M4.567987,2.463711 
	C3.330653,2.375476 2.556169,2.244076 1.390842,2.056338 
	C2.500000,1.666667 3.999833,1.042505 5.500023,1.041646 
	C87.499992,0.994679 169.499985,1.000000 251.499985,1.000000 
	C276.666656,1.000000 301.833313,1.000000 327.000000,1.000000 
	C327.000000,148.833313 327.002930,296.666626 326.958588,444.499939 
	C326.958130,446.000061 326.333313,447.499969 325.500000,449.000000 
	C324.882690,446.512421 324.663025,444.024811 324.662750,441.537231 
	C324.646301,298.255157 324.648376,154.973053 324.647522,11.690973 
	C324.647461,0.749971 324.670502,2.677775 315.411133,2.665019 
	C214.283157,2.525699 113.155106,2.446543 12.027078,2.355036 
	C9.695019,2.352926 7.362917,2.397661 4.567987,2.463711 
z"/>
<path fill="#424EC0" opacity="1.000000" stroke="none" 
	d="
M93.000854,283.993896 
	C95.209435,279.242188 96.714951,273.961761 99.795151,269.865509 
	C104.165169,264.053955 110.790390,262.127106 118.784134,263.249268 
	C121.849876,264.796600 124.215012,266.121918 126.720032,267.631409 
	C127.065323,268.052917 127.302551,268.252380 127.653809,268.752411 
	C128.747391,270.872955 129.758789,272.655060 130.770172,274.437195 
	C131.228210,274.126373 131.686249,273.815552 132.144287,273.504730 
	C130.808746,271.618561 129.473221,269.732391 128.022995,267.638306 
	C127.713760,267.170288 127.467918,266.974609 126.997025,266.556213 
	C125.127548,264.547852 123.431831,262.826660 121.736115,261.105499 
	C125.993362,251.375748 132.805801,244.682510 143.591400,242.705521 
	C155.982346,240.434265 170.512787,250.892853 172.219803,263.412811 
	C172.368698,264.504852 171.758133,265.700409 171.432434,267.150116 
	C186.171051,265.101013 196.120346,271.029755 200.919067,286.126740 
	C201.167679,289.201599 201.245758,291.529053 201.323837,293.856506 
	C201.219788,294.662445 201.115738,295.468384 200.861374,296.815491 
	C200.540924,297.569580 200.357239,297.770020 199.856049,298.117401 
	C194.473419,304.008667 188.023575,307.339966 180.495300,307.911377 
	C171.427338,308.599640 162.310379,308.642609 152.939880,308.691772 
	C146.944351,308.201263 141.208740,307.660614 135.509964,307.922241 
	C133.156128,308.030273 130.881317,309.859589 128.570572,310.906067 
	C124.695496,310.383362 121.362274,309.035309 118.928284,305.050629 
	C113.005592,303.854706 107.881874,302.708618 102.668701,301.334595 
	C101.383728,301.143219 100.188210,301.179779 98.992676,301.216339 
	C97.275421,297.683441 95.558167,294.150513 93.749359,289.973450 
	C93.446693,288.863586 93.235573,288.397949 93.024452,287.932281 
	C92.780479,287.163361 92.536507,286.394440 92.430771,285.218567 
	C92.860893,284.617188 93.004845,284.344635 93.000854,283.993896 
z"/>
<path fill="#434FC0" opacity="1.000000" stroke="none" 
	d="
M251.997528,383.054504 
	C247.421844,382.248718 242.846161,381.442932 237.923950,380.576111 
	C245.195038,365.793640 245.263824,350.748566 248.768143,336.538361 
	C249.036209,335.451263 247.338486,333.515900 246.117447,332.500244 
	C243.520126,330.339783 240.635040,328.525238 237.811005,325.904694 
	C237.517014,324.455933 237.279892,323.671417 237.042786,322.886871 
	C236.980637,321.492584 236.918503,320.098328 236.803619,318.000977 
	C236.537689,316.753143 236.324478,316.208435 236.111282,315.663696 
	C236.144180,313.714508 236.177078,311.765350 236.550262,309.392609 
	C237.182831,308.898315 237.478577,308.852692 237.777786,308.832123 
	C239.506897,313.339172 241.236008,317.846191 243.163940,322.871765 
	C243.492371,323.596161 243.678802,323.696594 243.922073,323.691650 
	C246.075745,324.243713 248.229416,324.795776 251.046478,325.488220 
	C252.950974,326.002625 254.192062,326.376648 255.881622,326.657654 
	C258.632568,325.953369 260.935028,325.342133 263.596924,324.821289 
	C265.956360,324.921356 267.956390,324.931000 269.956421,324.940643 
	C269.651276,323.143951 269.342102,321.347961 269.043823,319.550140 
	C268.964630,319.072968 268.918884,318.590302 268.938782,317.820801 
	C269.287354,316.999908 269.554901,316.468414 269.822479,315.936890 
	C270.170868,315.510742 270.519287,315.084625 271.185577,314.152039 
	C271.614777,312.782806 271.726105,311.920044 271.837463,311.057312 
	C271.954498,309.429016 272.071564,307.800720 272.334167,305.516907 
	C272.565002,304.273010 272.650269,303.684662 272.735535,303.096283 
	C272.849152,301.704346 272.962738,300.312439 273.244751,298.221741 
	C273.736084,296.686401 274.058990,295.849823 274.485474,295.016785 
	C274.589050,295.020294 274.791809,295.063293 274.791809,295.063293 
	C278.133972,304.661530 279.916382,314.371979 275.296112,324.014099 
	C272.086334,330.712494 271.766602,336.854492 274.984497,343.895752 
	C279.951477,354.764343 283.621826,366.218109 288.248230,377.253418 
	C290.001526,381.435516 288.733063,382.718384 284.825684,383.015564 
	C281.182648,383.292664 277.542603,383.608856 272.986603,383.943359 
	C265.380493,383.670776 258.688995,383.362640 251.997528,383.054504 
z"/>
<path fill="#EF718A" opacity="1.000000" stroke="none" 
	d="
M99.931549,309.156708 
	C98.455597,312.928589 97.293709,316.863953 95.434059,320.436066 
	C92.209129,326.630615 90.319328,334.034180 82.726845,335.801605 
	C85.506760,349.406830 88.224716,362.336426 90.709885,375.310608 
	C91.046455,377.067719 90.215309,379.048492 89.161057,380.907349 
	C80.613579,380.895325 72.829887,380.901672 65.046204,380.907990 
	C63.258934,380.640198 61.471664,380.372437 58.862633,379.981537 
	C59.148277,367.962738 55.271488,355.887299 59.482399,343.846161 
	C60.667580,340.457123 59.862442,338.666260 56.717613,337.186646 
	C53.126118,335.496857 49.878178,333.020966 46.212734,331.559235 
	C42.153069,329.940247 41.668045,327.618927 42.954617,323.844513 
	C44.287136,319.935333 44.939667,315.798035 46.182144,311.852692 
	C46.690037,310.239990 47.966305,308.869232 49.201466,307.046448 
	C49.509926,306.704437 49.769329,306.658417 49.903267,306.995483 
	C50.642895,308.002136 51.248577,308.671722 51.854267,309.341339 
	C51.503857,313.607239 51.297260,317.891663 50.751476,322.132416 
	C50.399212,324.869537 51.406834,326.104431 54.013531,326.462067 
	C57.734688,326.972626 61.442402,327.581207 65.877670,328.038086 
	C67.101791,327.667328 67.604103,327.406342 68.468475,327.119324 
	C69.947128,326.755920 71.063736,326.418549 72.427956,326.048340 
	C73.152802,325.883453 73.630020,325.751404 74.107239,325.619354 
	C81.694244,327.302643 85.753693,323.098175 89.086746,317.074036 
	C91.058220,313.510742 93.776855,310.360870 96.710464,307.062378 
	C98.151459,307.785370 99.041504,308.471039 99.931549,309.156708 
z"/>
<path fill="#7EAEF0" opacity="1.000000" stroke="none" 
	d="
M124.934608,370.990509 
	C121.233894,372.830811 119.706284,370.956696 120.093475,367.592590 
	C121.153008,358.386780 122.154480,349.138641 124.000526,340.074615 
	C124.866211,335.824158 124.776367,334.234528 119.997581,333.619354 
	C112.380569,332.638824 112.210716,331.906738 113.722374,324.156494 
	C114.326843,321.057373 114.615562,317.884644 115.417419,314.842804 
	C115.683037,313.835205 117.104675,313.132355 117.997772,312.290161 
	C118.661079,313.270569 119.331932,314.246063 119.977837,315.237793 
	C120.055542,315.357117 119.990730,315.565094 120.004433,315.730927 
	C120.847168,325.931183 121.500221,326.389923 132.965988,324.454956 
	C134.614899,328.787964 137.338135,326.211426 139.923950,325.969849 
	C144.675339,327.556763 149.005569,329.131256 153.382233,330.563904 
	C156.538910,331.597168 158.954041,331.031189 159.445343,327.160095 
	C159.919739,323.422180 160.412582,319.686615 161.218964,315.928345 
	C162.345459,316.174622 163.150330,316.442566 163.955200,316.710510 
	C168.069229,321.048584 164.926651,325.988647 164.630875,330.449982 
	C164.009293,339.825867 163.523010,339.780396 153.956345,340.020599 
	C152.524109,340.056549 151.096664,340.282837 149.421021,340.444824 
	C150.093704,351.404236 158.568604,355.356720 166.120178,360.059967 
	C166.122894,360.574341 166.125610,361.088684 166.128326,361.603058 
	C162.254105,363.095032 158.379868,364.587006 153.746948,366.312347 
	C147.559097,366.692261 142.064392,366.377380 136.722244,367.136230 
	C132.691864,367.708771 128.856674,369.655457 124.934608,370.990509 
z"/>
<path fill="#27368D" opacity="1.000000" stroke="none" 
	d="
M182.873550,319.343964 
	C184.090546,324.080231 185.307526,328.816528 186.695084,334.216583 
	C191.328445,331.220947 195.394943,328.591827 200.172836,325.949249 
	C202.917343,326.221161 204.950455,326.506531 206.992844,327.216309 
	C205.750519,332.265228 204.683823,336.950562 203.189987,341.495483 
	C201.947601,345.275452 199.926636,348.805389 198.759262,352.602448 
	C197.599167,356.375885 196.276688,360.531219 201.697906,362.638947 
	C202.414505,362.917511 202.566116,364.416595 203.257553,365.043701 
	C204.488998,366.160553 205.865677,367.157532 207.300735,368.002228 
	C211.843201,370.676056 214.175705,365.293427 217.923706,364.998138 
	C219.709457,372.492706 222.358093,379.522736 229.352615,384.641418 
	C224.307312,389.411041 218.552185,389.637604 211.974152,390.049225 
	C208.387222,390.109283 205.682678,390.157623 202.978119,390.205994 
	C202.231125,390.161285 201.484131,390.116608 199.921738,390.060242 
	C196.426224,389.955475 193.746109,389.862396 191.065994,389.769287 
	C187.731171,388.529572 184.396332,387.289856 181.932465,386.373901 
	C184.322174,371.092316 186.559448,356.785583 188.800446,342.455109 
	C180.955399,342.433807 180.751297,342.284485 179.644867,333.951782 
	C179.076614,329.672272 178.675278,325.370605 178.495987,320.581787 
	C180.153488,319.837769 181.513519,319.590881 182.873550,319.343964 
z"/>
<path fill="#F7FCFE" opacity="1.000000" stroke="none" 
	d="
M214.817932,95.470352 
	C210.205887,97.691582 206.266632,98.153572 203.373337,93.352455 
	C198.709793,95.014557 196.322449,98.010201 195.344269,102.763268 
	C194.697845,105.904335 193.128174,109.138535 191.083939,111.590874 
	C190.041779,112.841087 186.681442,113.268204 185.050964,112.540115 
	C183.908371,112.029869 182.940155,108.459442 183.607269,107.090683 
	C185.288879,103.640472 187.939606,100.662605 190.409607,97.204697 
	C189.480621,97.146919 188.716293,97.070534 187.950821,97.056160 
	C177.998093,96.869308 172.462006,91.347702 173.267548,82.400848 
	C174.239456,71.606255 181.928986,64.644447 191.299377,66.075485 
	C195.867722,66.773170 198.958832,71.165634 197.369827,75.098946 
	C196.909790,76.237686 195.366074,76.938644 194.319153,77.840302 
	C193.703690,76.827805 192.723404,75.878174 192.536209,74.791870 
	C191.748322,70.219513 190.115326,69.157578 185.834274,70.761093 
	C180.705276,72.682228 177.544342,80.096039 179.150482,86.437546 
	C180.276184,90.882133 184.571762,93.393288 189.770676,92.262474 
	C191.068771,91.980125 192.106506,90.500740 193.263901,89.571526 
	C192.310715,88.729309 191.347519,87.898087 190.407486,87.041443 
	C189.643219,86.344971 188.906723,85.618019 188.157898,84.904579 
	C189.138123,84.246986 190.122467,83.034622 191.097794,83.041855 
	C193.473282,83.059448 196.824356,82.841240 197.949753,84.217125 
	C199.142227,85.675018 198.217560,88.864609 198.217560,91.297874 
	C198.675705,91.512032 199.133850,91.726181 199.592010,91.940338 
	C200.573669,90.036545 201.990082,88.231308 202.448547,86.208908 
	C203.473969,81.685432 203.787842,76.998245 204.856461,72.487900 
	C205.455658,69.958847 206.630768,67.376091 208.215698,65.338020 
	C209.260773,63.994152 211.694397,62.689445 213.140137,63.011410 
	C214.404968,63.293095 215.449112,65.767937 216.045029,67.465485 
	C216.510239,68.790718 216.138184,70.409851 216.138184,71.404343 
	C218.433563,72.220604 220.422562,72.852837 222.289597,73.741356 
	C222.431442,73.808853 221.857178,76.500107 221.360474,76.592018 
	C219.454132,76.944771 217.443649,76.734833 215.121521,76.734833 
	C213.370544,80.000809 211.042770,84.028984 209.068527,88.223557 
	C208.504486,89.421936 208.965439,91.102737 208.956390,92.562332 
	C210.513489,91.956062 212.676331,91.776573 213.478271,90.638290 
	C214.542404,89.127892 214.289871,86.757828 215.074524,84.963303 
	C215.843430,83.204803 217.203415,81.704765 218.303986,80.091286 
	C218.750900,81.912331 219.512848,83.724533 219.564285,85.556686 
	C219.627274,87.800499 219.095337,90.061005 218.820633,92.314301 
	C219.356369,92.565750 219.892105,92.817207 220.427841,93.068665 
	C221.291519,91.660042 222.124588,90.231499 223.025513,88.847122 
	C224.699692,86.274567 225.869537,82.819733 228.246063,81.396141 
	C231.336487,79.544922 232.737656,77.648392 233.186752,74.177124 
	C233.562943,71.269264 234.586639,68.289482 236.024261,65.736015 
	C236.821320,64.320328 239.247543,62.748844 240.586670,63.015980 
	C241.901245,63.278217 243.854538,65.955727 243.641815,67.267456 
	C242.800903,72.452339 241.336121,77.551254 239.855896,82.609840 
	C239.256912,84.656891 237.664444,86.439751 237.214447,88.494049 
	C236.938751,89.752617 237.973236,91.298203 238.419357,92.714890 
	C239.413040,91.774414 240.646561,90.978142 241.325653,89.848541 
	C241.884308,88.919296 241.540482,87.474800 242.031601,86.471588 
	C242.887131,84.723953 243.751709,82.732414 245.198425,81.576385 
	C247.866241,79.444588 251.244537,78.644318 253.565155,81.873077 
	C255.861526,85.068153 254.148575,87.885506 251.266815,89.948532 
	C250.127045,90.764488 248.821228,91.348480 247.591019,92.038086 
	C247.791260,92.503471 247.991501,92.968857 248.191742,93.434242 
	C250.510788,92.517136 252.829834,91.600037 256.081116,90.314262 
	C255.539841,91.997795 255.474991,94.252441 254.541351,94.701736 
	C252.154617,95.850311 249.177139,97.131409 246.814911,96.617516 
	C244.025864,96.010788 241.751465,94.933334 238.997482,96.748550 
	C238.188660,97.281654 236.516388,96.429947 235.230820,96.334557 
	C233.803772,96.228653 232.365448,96.285889 230.933670,96.230232 
	C225.682022,96.026077 220.431061,95.804535 214.817932,95.470352 
M207.138870,83.000282 
	C207.195145,83.154839 207.214157,83.346794 207.319672,83.451920 
	C207.401611,83.533539 207.684158,83.571091 207.720245,83.519089 
	C211.196960,78.507851 213.403366,73.177368 212.512360,67.085403 
	C211.828690,66.914429 211.145035,66.743446 210.461365,66.572464 
	C209.346542,71.838638 208.231720,77.104805 207.138870,83.000282 
M240.384201,71.237480 
	C240.384201,69.783066 240.384201,68.328659 240.384201,66.874245 
	C239.793579,66.835632 239.202942,66.797020 238.612320,66.758408 
	C237.842239,71.656845 237.072174,76.555290 236.302094,81.453728 
	C236.710297,81.556664 237.118484,81.659592 237.526688,81.762520 
	C238.433945,78.506645 239.341202,75.250763 240.384201,71.237480 
M229.604553,85.064461 
	C228.850189,86.832703 227.767639,88.556999 227.521759,90.393326 
	C227.437119,91.025436 229.708969,92.794540 230.439865,92.565048 
	C232.936615,91.781090 232.675583,86.344406 229.604553,85.064461 
z"/>
<path fill="#26274B" opacity="1.000000" stroke="none" 
	d="
M125.072189,371.383270 
	C128.856674,369.655457 132.691864,367.708771 136.722244,367.136230 
	C142.064392,366.377380 147.559097,366.692261 153.346603,366.364838 
	C156.918930,381.185364 155.701294,396.258850 154.560760,411.349731 
	C154.241150,415.578522 154.511993,419.851990 154.511993,424.700287 
	C152.387390,425.178314 150.356903,424.700012 149.728668,420.579956 
	C148.028458,409.429535 145.972641,398.332794 143.996796,387.225586 
	C143.716843,385.651764 143.096710,384.138428 142.432358,381.925262 
	C140.686554,396.228912 132.730240,407.297852 127.994064,419.619873 
	C127.137291,421.848969 126.878174,424.307800 126.285271,426.914978 
	C122.233185,426.978912 121.164154,425.820923 122.180862,421.147095 
	C123.520737,414.987640 125.505745,408.939789 126.430534,402.727417 
	C127.244202,397.261627 127.307205,391.622986 127.093979,386.084076 
	C126.909714,381.297638 125.870857,376.544098 125.072189,371.383270 
z"/>
<path fill="#F7FCFE" opacity="1.000000" stroke="none" 
	d="
M106.253853,80.287170 
	C110.676529,79.138863 111.570442,81.380112 110.953575,85.139091 
	C110.558968,87.543671 110.237892,89.960312 109.883858,92.371552 
	C110.429909,92.599388 110.975960,92.827232 111.522011,93.055069 
	C112.439766,91.287529 113.575127,89.597183 114.234627,87.738029 
	C116.244659,82.071747 120.433296,79.256607 124.913864,80.485580 
	C127.618408,81.227402 128.842712,82.398956 128.111359,85.372887 
	C127.547630,87.665192 127.470421,90.077141 127.176888,92.435890 
	C127.723488,92.660683 128.270096,92.885483 128.816696,93.110275 
	C129.753113,91.457016 130.903305,89.883781 131.561218,88.126266 
	C132.131836,86.601875 131.802216,84.699066 132.505905,83.278214 
	C133.139130,81.999649 134.635483,81.148552 135.751144,80.108910 
	C136.355850,81.289291 136.960556,82.469666 137.392487,83.312790 
	C139.763275,82.360756 142.460983,81.277428 145.158707,80.194107 
	C145.699493,82.284248 146.240280,84.374397 146.899796,86.923378 
	C149.561249,83.169685 151.967682,78.353096 157.769760,80.415543 
	C158.973618,80.843483 160.640900,83.434273 160.291382,84.161003 
	C158.838394,87.182053 156.695526,89.871300 154.497650,93.140694 
	C156.558563,92.413643 158.933884,91.575684 162.701553,90.246529 
	C161.264191,92.629288 160.522491,95.421768 159.195633,95.734924 
	C156.382675,96.398827 153.120544,96.291214 150.315384,95.514618 
	C147.871399,94.837997 145.644211,92.997246 143.623978,91.308678 
	C142.336044,90.232193 141.599930,88.495537 140.096649,86.293579 
	C139.000198,88.729904 137.885406,90.943031 137.000793,93.244621 
	C136.059143,95.694649 135.745712,97.430458 131.853821,96.224831 
	C128.343460,95.137367 124.066017,96.641624 120.118614,96.816795 
	C116.208015,96.990334 112.225922,97.331810 108.405289,96.748062 
	C107.138977,96.554588 105.804337,93.833771 105.369308,92.055962 
	C104.976601,90.451096 105.769875,88.556015 106.040131,86.788910 
	C105.602463,86.618660 105.164787,86.448402 104.727119,86.278145 
	C103.667244,88.705612 102.814201,91.256187 101.470055,93.514442 
	C100.661438,94.872963 99.087769,95.776115 97.857925,96.883911 
	C97.252235,95.513321 95.967888,94.044098 96.150429,92.788048 
	C97.382164,84.312401 98.686020,75.830292 100.496124,67.464859 
	C101.128227,64.543556 103.566238,61.647953 107.115280,63.000580 
	C110.870285,64.431702 110.375542,68.107063 109.369484,71.179176 
	C108.499901,73.834541 107.000748,76.283737 105.407333,79.270966 
	C104.927200,80.054497 104.819618,80.391113 104.712036,80.727737 
	C105.225975,80.580879 105.739914,80.434021 106.253853,80.287170 
M102.661308,77.736504 
	C105.187531,74.518112 106.787529,71.096558 105.911255,67.131836 
	C105.252296,66.988304 104.593346,66.844772 103.934387,66.701241 
	C103.281937,70.461105 102.629478,74.220970 101.707962,78.044991 
	C101.810127,78.035835 101.912285,78.026680 102.661308,77.736504 
M123.109276,87.798241 
	C123.296097,86.455696 123.482925,85.113152 123.669754,83.770607 
	C123.082886,83.525620 122.496010,83.280640 121.909142,83.035660 
	C120.719147,85.447044 119.403770,87.809517 118.429947,90.305252 
	C118.195213,90.906830 119.091637,91.949776 119.467873,92.789742 
	C120.364754,92.309494 121.482162,92.016441 122.094734,91.294838 
	C122.674232,90.612198 122.723717,89.479622 123.109276,87.798241 
z"/>
<path fill="#25264B" opacity="1.000000" stroke="none" 
	d="
M218.079239,364.656799 
	C214.175705,365.293427 211.843201,370.676056 207.300735,368.002228 
	C205.865677,367.157532 204.488998,366.160553 203.257553,365.043701 
	C202.566116,364.416595 202.414505,362.917511 201.697906,362.638947 
	C196.276688,360.531219 197.599167,356.375885 198.759262,352.602448 
	C199.926636,348.805389 201.947601,345.275452 203.189987,341.495483 
	C204.683823,336.950562 205.750519,332.265228 207.072144,326.918182 
	C206.680481,324.210632 206.751953,321.819580 205.625702,320.340637 
	C204.129395,318.375793 204.341980,314.124207 200.011597,315.175659 
	C200.898621,311.430542 205.082138,309.269440 208.986389,310.539520 
	C213.864410,312.126312 215.895004,315.734985 216.082214,323.836975 
	C216.067307,324.497437 216.144974,324.983276 216.144974,324.983276 
	C216.128143,325.691986 216.111298,326.400726 215.949921,327.744568 
	C215.227127,331.863464 214.648865,335.347168 214.070587,338.830902 
	C215.440369,343.658386 216.475052,348.616058 218.283951,353.272980 
	C219.781387,357.128052 221.124985,360.633575 218.079239,364.656799 
z"/>
<path fill="#4652C0" opacity="1.000000" stroke="none" 
	d="
M263.880493,289.026855 
	C252.916199,281.926392 252.219574,266.987335 258.125336,258.254913 
	C265.288025,247.664017 278.150330,244.745544 289.879852,251.860077 
	C290.808258,253.794205 291.626648,255.036652 292.117767,256.397217 
	C294.085022,261.846924 297.197418,267.286224 292.574036,272.744232 
	C290.731476,269.063019 287.953094,269.455566 284.697510,269.956543 
	C283.027557,269.414093 281.652008,269.382050 280.376129,269.009064 
	C278.522552,268.467163 276.740936,267.679413 275.283508,266.683716 
	C276.765137,266.633759 277.879578,267.028778 279.020935,267.135193 
	C282.863251,267.493500 286.077881,265.644196 286.478485,262.120361 
	C286.774261,259.518341 285.411194,255.658035 283.429688,254.187439 
	C281.678101,252.887436 277.602905,253.258286 275.358459,254.431381 
	C272.153198,256.106659 271.572113,259.621704 273.104248,263.159210 
	C273.506378,264.087708 273.710236,265.102081 273.650818,266.127014 
	C264.875793,269.024109 264.457428,276.697327 262.149780,283.511597 
	C267.878326,285.005432 272.990967,286.338623 277.836975,287.961792 
	C273.682739,288.859741 269.795135,289.467773 265.907532,290.075806 
	C265.907532,290.075806 265.957947,290.027832 265.767059,289.836487 
	C265.010956,289.439087 264.445709,289.232971 263.880493,289.026855 
z"/>
<path fill="#2C3A8F" opacity="1.000000" stroke="none" 
	d="
M49.769333,306.658447 
	C49.769329,306.658417 49.509926,306.704437 49.378563,306.710571 
	C48.165592,305.591492 47.265751,304.163086 45.973854,303.388794 
	C34.797329,296.689911 30.835562,284.265381 36.576000,273.537781 
	C42.390415,262.671936 54.690475,258.927032 66.748581,265.059875 
	C67.684082,267.698059 68.350182,269.709808 68.637436,271.853668 
	C60.733269,275.713715 54.780132,273.028046 49.274128,266.582947 
	C50.798553,276.272339 46.218842,281.452423 37.934700,284.815460 
	C47.242722,286.257629 51.469074,291.718018 51.268658,301.669525 
	C56.413940,296.252380 59.128422,289.337891 66.931679,293.369934 
	C64.491333,298.648895 59.974300,300.455933 55.158218,302.022095 
	C54.200554,302.333527 53.676277,303.977661 52.649460,305.060150 
	C51.487625,305.628174 50.628483,306.143311 49.769333,306.658447 
z"/>
<path fill="#29398F" opacity="1.000000" stroke="none" 
	d="
M65.076767,381.325317 
	C72.829887,380.901672 80.613579,380.895325 88.790016,381.005676 
	C88.857155,386.535675 89.037460,392.039825 88.085571,397.340668 
	C86.708931,405.006836 84.512283,412.525787 82.665459,420.107574 
	C82.157227,420.208527 81.648987,420.309509 81.140747,420.410461 
	C80.488792,417.724609 79.325630,415.044159 79.297035,412.351654 
	C79.245972,407.544098 80.144394,402.728424 80.129898,397.917725 
	C80.120888,394.929504 79.162331,391.944153 78.629967,388.957520 
	C78.113998,388.986572 77.598030,389.015656 77.082054,389.044708 
	C75.318939,400.759644 73.555817,412.474548 71.792702,424.189484 
	C71.456398,424.293213 71.120102,424.396973 70.783798,424.500702 
	C70.197861,421.636047 69.414536,418.795563 69.060783,415.902527 
	C67.669571,404.524872 66.413551,393.130707 65.076767,381.325317 
z"/>
<path fill="#29398F" opacity="1.000000" stroke="none" 
	d="
M252.062958,383.458984 
	C258.688995,383.362640 265.380493,383.670776 272.539368,383.994446 
	C271.816254,395.732666 270.625702,407.455322 269.435181,419.177948 
	C269.152710,419.117279 268.870270,419.056580 268.587799,418.995880 
	C266.967926,412.300964 265.348022,405.606049 263.728119,398.911133 
	C263.394531,398.921143 263.060913,398.931152 262.727325,398.941132 
	C261.989166,407.973785 261.251007,417.006470 260.512787,426.040222 
	C259.702362,426.167114 258.392029,426.372284 257.756622,426.471771 
	C257.220886,412.376160 254.138336,398.182068 252.062958,383.458984 
z"/>
<path fill="#EE748C" opacity="1.000000" stroke="none" 
	d="
M219.766312,305.116211 
	C212.156509,300.270294 209.935287,291.378326 214.393860,283.609192 
	C218.831207,275.877075 228.127136,273.428894 236.792847,278.312500 
	C237.816315,279.190857 238.453369,279.568695 239.090424,279.946533 
	C239.090424,279.946533 239.014877,279.976471 239.037537,280.346222 
	C239.614044,282.767181 240.716003,284.855011 240.582153,286.860321 
	C240.417130,289.333008 239.223495,291.737091 238.252686,293.939209 
	C235.132019,289.124786 232.233047,284.541931 229.147186,279.663666 
	C227.252319,280.770142 225.789032,281.859192 224.154709,282.534027 
	C219.618149,284.407166 219.253265,286.856903 222.147720,290.754639 
	C224.440308,293.841919 227.834503,297.095917 224.418015,301.627991 
	C224.128235,302.012390 224.825333,303.140778 224.759460,304.169067 
	C222.892075,304.648499 221.329193,304.882355 219.766312,305.116211 
z"/>
<path fill="#F7FCFE" opacity="1.000000" stroke="none" 
	d="
M78.784485,76.140396 
	C81.894760,78.010178 84.772484,79.609756 87.697929,81.116699 
	C91.223412,82.932709 93.632225,85.367264 92.993629,89.734161 
	C92.363914,94.040466 89.363724,96.182220 85.564590,96.671715 
	C82.192902,97.106125 78.358749,97.270302 75.343369,96.043304 
	C73.148331,95.150108 71.669800,91.932465 70.493996,89.455765 
	C70.159340,88.750862 72.002449,87.012062 72.846886,85.747391 
	C73.656250,86.870911 74.358994,88.094971 75.300735,89.093666 
	C76.612373,90.484642 78.121246,92.793594 79.512901,92.770050 
	C82.217850,92.724304 84.899979,91.329041 87.591560,90.492821 
	C86.883987,88.863510 86.614952,86.614815 85.375244,85.737053 
	C82.979584,84.040810 79.920052,83.319565 77.343849,81.833374 
	C71.480949,78.451080 71.180809,70.436470 77.332703,67.915619 
	C81.234001,66.316994 86.274559,66.786812 90.644470,67.424133 
	C92.204147,67.651588 93.797050,70.962517 94.396561,73.135849 
	C94.720833,74.311394 92.983063,76.055756 92.175529,77.543510 
	C91.338737,76.279457 90.004326,75.104568 89.758835,73.734573 
	C89.034172,69.690468 86.061523,69.857971 83.289276,70.087212 
	C79.992989,70.359802 77.368401,71.642532 78.784485,76.140396 
z"/>
<path fill="#4049AF" opacity="1.000000" stroke="none" 
	d="
M292.770721,272.997772 
	C297.197418,267.286224 294.085022,261.846924 292.117767,256.397217 
	C291.626648,255.036652 290.808258,253.794205 290.100159,252.123993 
	C298.197296,256.681580 301.314880,264.257172 300.351868,273.292816 
	C299.283112,283.320831 293.412292,289.898438 283.774628,292.927368 
	C281.107727,293.765533 278.312744,294.196228 275.184174,294.938599 
	C274.791809,295.063293 274.589050,295.020294 274.390076,294.693481 
	C273.456604,294.005310 272.722107,293.643951 271.987579,293.282562 
	C270.080566,292.409149 268.173584,291.535736 266.087036,290.369080 
	C269.795135,289.467773 273.682739,288.859741 278.236633,287.986877 
	C280.980713,288.069977 283.058472,288.417999 285.572205,288.839020 
	C286.077637,285.073120 286.538422,281.639954 287.376892,278.170227 
	C291.162811,278.117371 292.462219,276.041473 292.770721,272.997772 
z"/>
<path fill="#4049AF" opacity="1.000000" stroke="none" 
	d="
M164.157227,316.438232 
	C163.150330,316.442566 162.345459,316.174622 160.919647,315.712891 
	C156.884293,314.961761 153.469864,314.404449 150.201080,313.547729 
	C151.302689,311.820526 152.258652,310.392731 153.214630,308.964966 
	C162.310379,308.642609 171.427338,308.599640 180.495300,307.911377 
	C188.023575,307.339966 194.473419,304.008667 199.889664,298.352844 
	C200.227203,298.428925 200.318130,298.895325 200.318130,298.895325 
	C197.390396,307.105286 191.885834,312.734283 182.990692,315.740753 
	C180.880478,316.442688 179.384186,316.986084 177.887894,317.529480 
	C173.378342,317.074951 168.868790,316.620453 164.157227,316.438232 
z"/>
<path fill="#263381" opacity="1.000000" stroke="none" 
	d="
M52.952156,305.007263 
	C53.676277,303.977661 54.200554,302.333527 55.158218,302.022095 
	C59.974300,300.455933 64.491333,298.648895 67.317261,293.312164 
	C68.827705,292.919128 69.879547,292.919128 71.289635,292.919128 
	C70.670189,291.374237 70.260895,290.353485 69.941559,288.932373 
	C71.548813,283.584930 73.010094,278.639618 69.613167,273.543701 
	C69.450340,272.730438 69.233307,272.225983 69.016281,271.721527 
	C68.350182,269.709808 67.684082,267.698059 67.001740,265.321411 
	C73.985809,268.579773 77.006889,274.754669 78.163574,282.868835 
	C78.503639,284.017426 78.723709,284.499115 78.943787,284.980835 
	C78.511223,285.992676 77.957314,286.970703 77.664665,288.021484 
	C74.343872,299.945526 66.581451,305.756073 53.549606,305.513092 
	C53.087070,305.352142 52.952156,305.007263 52.952156,305.007263 
z"/>
<path fill="#7EAEF0" opacity="1.000000" stroke="none" 
	d="
M225.004349,257.020966 
	C218.813431,254.006180 215.710373,246.502029 217.099640,237.904953 
	C218.023407,232.188477 225.034225,225.232651 230.755951,225.147202 
	C234.579941,225.090073 238.420883,226.167999 242.570023,227.266907 
	C242.860367,228.068359 242.834946,228.340881 242.368469,228.501633 
	C238.150299,228.334030 234.364304,228.110992 230.600708,228.310638 
	C229.234253,228.383118 227.921341,229.464905 226.426071,230.451447 
	C226.507401,238.539413 226.746658,246.262100 227.297302,254.230316 
	C230.215073,254.769104 232.821426,255.062317 235.427795,255.355545 
	C235.432419,255.731705 235.437027,256.107880 235.441650,256.484039 
	C231.962555,256.662994 228.483444,256.841980 225.004349,257.020966 
z"/>
<path fill="#2C3A8F" opacity="1.000000" stroke="none" 
	d="
M214.347076,338.557312 
	C214.648865,335.347168 215.227127,331.863464 216.086700,328.082397 
	C217.275375,327.877716 218.182739,327.970367 219.674896,328.294922 
	C221.161209,328.350372 222.062714,328.173920 222.964233,327.997437 
	C224.154770,322.193359 225.345291,316.389282 226.999664,310.267792 
	C227.776947,309.829376 228.000061,309.614563 228.321045,309.249420 
	C228.509277,309.192932 228.899124,309.242798 228.998535,309.467285 
	C229.297455,309.968231 229.560287,310.156097 229.886459,310.255371 
	C229.886459,319.786621 229.886459,329.317871 229.886459,339.194977 
	C224.314362,338.862305 219.468964,338.573029 214.347076,338.557312 
z"/>
<path fill="#719AD9" opacity="1.000000" stroke="none" 
	d="
M242.809509,228.613403 
	C242.834946,228.340881 242.860367,228.068359 242.927689,227.387177 
	C249.617874,230.145981 253.999649,238.207855 252.735382,244.946228 
	C251.172562,253.275848 244.687653,259.791901 236.940598,259.836731 
	C233.133926,259.858734 229.318405,258.349304 225.255615,257.276978 
	C228.483444,256.841980 231.962555,256.662994 235.441650,256.484039 
	C235.437027,256.107880 235.432419,255.731705 235.427795,255.355545 
	C232.821426,255.062317 230.215073,254.769104 227.447449,254.020386 
	C227.558899,253.357788 227.831589,253.150681 228.560379,252.958176 
	C233.264740,252.983185 237.513000,252.993607 242.108704,252.844772 
	C242.686401,251.444260 242.916656,250.203003 243.478989,248.861023 
	C248.683701,242.976059 248.354324,233.497513 243.095245,229.803192 
	C242.933533,229.254272 242.860062,228.936493 242.809509,228.613403 
z"/>
<path fill="#26274B" opacity="1.000000" stroke="none" 
	d="
M152.939865,308.691772 
	C152.258652,310.392731 151.302689,311.820526 150.078262,313.894592 
	C148.377060,317.925232 145.905060,319.540924 141.912872,318.779785 
	C134.327560,315.111450 132.369736,315.863190 132.063339,322.214661 
	C128.195206,319.621735 126.504578,316.247040 128.417450,311.269775 
	C130.881317,309.859589 133.156128,308.030273 135.509964,307.922241 
	C141.208740,307.660614 146.944351,308.201263 152.939865,308.691772 
z"/>
<path fill="#81AFF0" opacity="1.000000" stroke="none" 
	d="
M87.009552,255.032104 
	C81.170677,253.553558 76.637978,247.491089 77.116623,241.800369 
	C77.641273,235.562607 83.437241,229.387558 89.162415,229.015564 
	C90.488388,228.929428 91.824219,228.994827 93.749374,229.282349 
	C94.882912,230.732849 95.422585,231.891510 95.622803,233.118042 
	C94.158203,234.621765 93.033066,236.057632 91.616119,237.865921 
	C91.033028,236.130203 90.558167,234.716660 90.099937,233.352631 
	C87.700447,235.590912 85.568871,237.579269 83.280273,239.714127 
	C84.360939,240.429382 85.569321,241.229187 87.014458,242.185684 
	C85.072212,243.035736 83.623116,243.669952 82.722015,244.064331 
	C84.742996,246.590073 86.297485,248.532822 88.022644,250.688858 
	C88.930916,249.191238 89.848671,247.677979 90.421227,246.733917 
	C92.055229,248.280807 93.358116,249.514252 94.658058,251.100006 
	C92.106590,252.645599 89.558067,253.838852 87.009552,255.032104 
z"/>
<path fill="#7DADED" opacity="1.000000" stroke="none" 
	d="
M203.009705,390.592834 
	C205.682678,390.157623 208.387222,390.109283 211.538055,390.109009 
	C213.252014,399.176086 214.700790,408.175293 215.688950,417.224792 
	C216.033936,420.384277 218.223846,425.070374 212.459122,425.736023 
	C209.246765,413.880859 206.144028,402.430267 203.009705,390.592834 
z"/>
<path fill="#7DADED" opacity="1.000000" stroke="none" 
	d="
M191.050781,390.222107 
	C193.746109,389.862396 196.426224,389.955475 199.549332,390.108002 
	C199.480179,402.125580 198.968018,414.083710 198.455872,426.041840 
	C197.691071,426.092865 196.926270,426.143890 196.161469,426.194916 
	C193.245972,414.573578 192.462616,402.565918 191.050781,390.222107 
z"/>
<path fill="#D66F83" opacity="1.000000" stroke="none" 
	d="
M228.899124,309.242798 
	C228.899124,309.242798 228.509277,309.192932 228.059067,309.177917 
	C227.428070,309.157867 227.247269,309.152863 227.066452,309.147858 
	C224.781067,307.986023 222.495682,306.824188 219.988312,305.389282 
	C221.329193,304.882355 222.892075,304.648499 225.000977,304.229126 
	C225.547012,304.043640 226.001968,304.248169 226.236145,304.418884 
	C227.311905,304.371613 228.153503,304.153625 228.994019,303.966187 
	C228.992935,303.996765 228.940948,303.964600 229.321472,303.976501 
	C232.126480,302.286652 234.550964,300.584930 237.184967,298.627319 
	C237.754456,296.971222 238.114426,295.571014 238.474380,294.170807 
	C239.223495,291.737091 240.417130,289.333008 240.582153,286.860321 
	C240.716003,284.855011 239.614044,282.767181 239.060974,280.313049 
	C240.819824,282.308044 242.577881,284.706024 244.371582,287.449402 
	C244.566483,288.346588 244.725723,288.898376 244.884979,289.450165 
	C244.844421,294.746674 243.501617,299.513977 239.825333,303.575958 
	C238.821243,304.685394 238.623123,306.524231 237.916458,308.430237 
	C237.478577,308.852692 237.182831,308.898315 236.742859,309.020111 
	C236.595169,309.071167 236.368790,308.924896 236.157867,308.630585 
	C234.929306,308.153656 233.911697,307.971039 232.894089,307.788391 
	C232.894089,307.788391 232.418060,307.791382 231.901703,307.891541 
	C230.918274,308.314056 230.451202,308.636414 229.984131,308.958740 
	C229.984116,308.958740 229.991241,308.985626 229.708435,309.033539 
	C229.250122,309.135223 229.074615,309.188995 228.899124,309.242798 
z"/>
<path fill="#292A4E" opacity="1.000000" stroke="none" 
	d="
M255.433136,326.750671 
	C254.192062,326.376648 252.950974,326.002625 251.470947,325.491882 
	C251.419312,324.734192 251.606613,324.113281 252.069794,323.117584 
	C252.614349,322.583923 252.700760,322.355957 252.604889,322.058899 
	C252.682541,321.588470 252.760223,321.118073 252.772354,320.018738 
	C252.503876,319.088287 252.300919,318.786743 252.097977,318.485168 
	C253.667114,315.825867 254.949173,312.914734 256.949951,310.634064 
	C257.725891,309.749542 260.364502,309.729889 261.733673,310.309937 
	C263.953827,311.250519 265.826904,313.010315 267.994263,315.055969 
	C268.380615,316.495178 268.619202,317.302673 268.857788,318.110138 
	C268.918884,318.590302 268.964630,319.072968 269.043823,319.550140 
	C269.342102,321.347961 269.651276,323.143951 269.956421,324.940643 
	C267.956390,324.931000 265.956360,324.921356 263.714233,324.525024 
	C263.253510,322.948730 263.424500,321.409668 262.735748,320.641785 
	C261.271942,319.009857 259.360901,317.779053 257.633240,316.383820 
	C256.751923,318.279510 255.578979,320.103210 255.087204,322.095062 
	C254.732712,323.530945 255.285202,325.190735 255.433136,326.750671 
z"/>
<path fill="#719AD9" opacity="1.000000" stroke="none" 
	d="
M87.283440,255.261963 
	C89.558067,253.838852 92.106590,252.645599 94.684799,251.110413 
	C94.714493,250.768494 94.759872,250.799149 95.117699,250.802170 
	C96.658653,249.236710 97.841782,247.668228 99.252365,245.840439 
	C99.353958,242.953186 99.228111,240.325226 99.079559,237.342468 
	C98.020180,235.667999 96.983505,234.348373 95.961845,233.020660 
	C95.976860,233.012573 95.962257,233.050171 95.962257,233.050171 
	C95.422585,231.891510 94.882912,230.732849 94.187912,229.288727 
	C102.474472,230.728745 107.207298,238.276154 104.930710,246.382370 
	C102.731163,254.214203 95.041733,258.246063 87.283440,255.261963 
z"/>
<path fill="#292A4E" opacity="1.000000" stroke="none" 
	d="
M66.349915,325.945160 
	C64.053894,322.836853 61.757877,319.728516 59.204975,316.272430 
	C63.321030,313.887360 66.154831,311.690430 69.364540,310.584442 
	C71.434410,309.871246 74.055725,310.758423 76.429901,310.928345 
	C76.034660,312.885284 75.639420,314.842224 74.661713,316.995544 
	C66.676674,317.536865 65.670464,318.676361 66.349915,325.945160 
z"/>
<path fill="#EE748C" opacity="1.000000" stroke="none" 
	d="
M187.552292,258.158447 
	C182.895599,254.628754 181.582779,249.950272 183.909683,245.177307 
	C186.306519,240.260849 191.255127,238.543823 197.885132,240.921051 
	C198.582123,241.562119 198.864822,241.754074 199.147507,241.946045 
	C199.147507,241.946045 199.086639,241.869812 199.052338,242.171402 
	C198.980911,242.695038 198.943802,242.917099 198.508118,243.093567 
	C194.722717,243.718170 191.313309,244.297760 187.967087,245.131058 
	C187.252701,245.308960 186.451080,246.317734 186.227875,247.097733 
	C184.620743,252.713913 186.318161,254.890961 192.134628,254.934021 
	C193.772293,254.946152 195.409271,255.052277 196.928757,255.439819 
	C194.405365,256.891846 191.999756,258.019318 189.594162,259.146790 
	C189.594162,259.146790 189.324600,259.201324 188.985245,258.924438 
	C188.281357,258.484528 187.916824,258.321503 187.552292,258.158447 
z"/>
<path fill="#EAC1B0" opacity="1.000000" stroke="none" 
	d="
M132.226471,322.411316 
	C132.369736,315.863190 134.327560,315.111450 141.856720,319.150269 
	C141.219376,321.809021 140.371033,323.852875 139.522675,325.896729 
	C137.338135,326.211426 134.614899,328.787964 133.308350,324.216888 
	C132.851974,323.511597 132.620789,323.059814 132.226471,322.411316 
z"/>
<path fill="#EAC1B0" opacity="1.000000" stroke="none" 
	d="
M199.964905,315.561066 
	C204.341980,314.124207 204.129395,318.375793 205.625702,320.340637 
	C206.751953,321.819580 206.680481,324.210632 207.062866,326.493774 
	C204.950455,326.506531 202.917343,326.221161 200.513138,325.815521 
	C200.067413,322.445648 199.992798,319.196075 199.964905,315.561066 
z"/>
<path fill="#D66F83" opacity="1.000000" stroke="none" 
	d="
M189.940582,259.383728 
	C191.999756,258.019318 194.405365,256.891846 197.319244,255.351166 
	C198.560287,253.876205 199.915344,252.809036 199.906189,251.753708 
	C199.881271,248.879517 199.279739,246.010345 198.906677,243.139175 
	C198.943802,242.917099 198.980911,242.695038 199.091705,242.142624 
	C203.249619,244.931580 204.615997,249.185730 202.913864,253.483078 
	C200.960083,258.415833 196.696548,260.488220 189.940582,259.383728 
z"/>
<path fill="#EAC1B0" opacity="1.000000" stroke="none" 
	d="
M66.295242,325.996948 
	C65.670464,318.676361 66.676674,317.536865 74.454887,317.332886 
	C74.630104,319.424774 74.429672,321.375732 73.861008,323.809204 
	C73.055298,324.888184 72.617813,325.484680 72.180328,326.081177 
	C71.063736,326.418549 69.947128,326.755920 68.285202,326.869171 
	C67.191864,326.432373 66.643852,326.219696 66.095840,326.007050 
	C66.095840,326.007050 66.240562,326.048706 66.295242,325.996948 
z"/>
<path fill="#4049AF" opacity="1.000000" stroke="none" 
	d="
M102.758156,301.562561 
	C107.881874,302.708618 113.005592,303.854706 118.569061,305.002502 
	C117.905556,306.042389 116.638695,308.091278 115.727356,307.943787 
	C111.782951,307.305267 107.942482,306.024750 103.518951,304.611450 
	C102.901855,303.350922 102.830009,302.456757 102.758156,301.562561 
z"/>
<path fill="#7CC8F2" opacity="1.000000" stroke="none" 
	d="
M278.855896,115.885086 
	C276.805847,116.060959 274.584381,113.163795 273.378082,116.935944 
	C273.180328,117.554344 271.031097,117.548668 268.850006,118.043121 
	C270.044250,115.206337 270.779846,113.458946 271.371307,112.054031 
	C273.371002,111.884293 275.091705,111.431068 276.691895,111.698578 
	C277.996826,111.916733 279.189819,112.952805 280.319183,113.780746 
	C280.405914,113.844315 279.593079,115.134865 278.855896,115.885086 
z"/>
<path fill="#EAC1B0" opacity="1.000000" stroke="none" 
	d="
M102.668701,301.334595 
	C102.830009,302.456757 102.901855,303.350922 103.177490,304.514954 
	C102.406860,306.085236 101.432457,307.385712 100.194794,308.921448 
	C99.041504,308.471039 98.151459,307.785370 97.000374,306.883972 
	C97.404282,305.031128 98.069229,303.393982 98.863434,301.486603 
	C100.188210,301.179779 101.383728,301.143219 102.668701,301.334595 
z"/>
<path fill="#7DADED" opacity="1.000000" stroke="none" 
	d="
M126.580139,267.447205 
	C124.215012,266.121918 121.849876,264.796600 119.234535,263.253235 
	C119.768188,262.527100 120.552063,262.019073 121.536026,261.308289 
	C123.431831,262.826660 125.127548,264.547852 126.846176,266.704468 
	C126.869080,267.139954 126.580139,267.447205 126.580139,267.447205 
z"/>
<path fill="#6BBEED" opacity="1.000000" stroke="none" 
	d="
M177.918304,317.986206 
	C179.384186,316.986084 180.880478,316.442688 182.691040,315.921967 
	C182.980804,316.794739 182.956284,317.644836 182.902649,318.919434 
	C181.513519,319.590881 180.153488,319.837769 178.452148,320.173462 
	C178.056808,319.655792 178.002747,319.049347 177.918304,317.986206 
z"/>
<path fill="#6BBEED" opacity="1.000000" stroke="none" 
	d="
M201.484375,293.551086 
	C201.245758,291.529053 201.167679,289.201599 201.115753,286.433533 
	C201.705460,286.728546 202.769699,287.490295 202.732956,288.194580 
	C202.644363,289.892578 202.040802,291.563721 201.484375,293.551086 
z"/>
<path fill="#6CBFED" opacity="1.000000" stroke="none" 
	d="
M52.649460,305.060150 
	C52.952156,305.007263 53.087070,305.352142 53.131325,305.531921 
	C52.792320,306.668762 52.409065,307.625854 51.940037,308.962158 
	C51.248577,308.671722 50.642895,308.002136 49.903275,306.995483 
	C50.628483,306.143311 51.487625,305.628174 52.649460,305.060150 
z"/>
<path fill="#6BBEED" opacity="1.000000" stroke="none" 
	d="
M272.011871,293.630920 
	C272.722107,293.643951 273.456604,294.005310 274.286499,294.689972 
	C274.058990,295.849823 273.736084,296.686401 273.226135,297.802673 
	C272.704773,296.714691 272.370453,295.346954 272.011871,293.630920 
z"/>
<path fill="#6CBFED" opacity="1.000000" stroke="none" 
	d="
M79.255203,284.968811 
	C78.723709,284.499115 78.503639,284.017426 78.265121,283.263550 
	C79.212631,283.356415 80.178589,283.721466 81.144539,284.086517 
	C80.618568,284.376587 80.092598,284.666656 79.255203,284.968811 
z"/>
<path fill="#6BBEED" opacity="1.000000" stroke="none" 
	d="
M205.864700,287.725769 
	C206.651001,287.747833 207.287384,287.942047 207.923767,288.136261 
	C207.811325,288.401733 207.698883,288.667206 207.586456,288.932678 
	C206.962570,288.587738 206.338669,288.242828 205.864700,287.725769 
z"/>
<path fill="#6BBEED" opacity="1.000000" stroke="none" 
	d="
M233.145004,308.039429 
	C233.911697,307.971039 234.929306,308.153656 236.023148,308.634033 
	C235.198212,308.717987 234.297073,308.504211 233.145004,308.039429 
z"/>
<path fill="#6CBFED" opacity="1.000000" stroke="none" 
	d="
M92.723923,284.004578 
	C93.004845,284.344635 92.860893,284.617188 92.354111,284.916168 
	C91.682434,285.038513 91.225647,285.056305 90.768860,285.074036 
	C91.328232,284.721100 91.887611,284.368195 92.723923,284.004578 
z"/>
<path fill="#6CBFED" opacity="1.000000" stroke="none" 
	d="
M66.074272,326.317200 
	C66.643852,326.219696 67.191864,326.432373 67.923149,326.895203 
	C67.604103,327.406342 67.101791,327.667328 66.298866,327.899048 
	C66.016403,327.455597 66.034554,327.041473 66.074272,326.317200 
z"/>
<path fill="#6BBEED" opacity="1.000000" stroke="none" 
	d="
M268.938782,317.820801 
	C268.619202,317.302673 268.380615,316.495178 268.176117,315.356781 
	C268.611420,315.258484 269.012604,315.491119 269.618134,315.830322 
	C269.554901,316.468414 269.287354,316.999908 268.938782,317.820801 
z"/>
<path fill="#6CBFED" opacity="1.000000" stroke="none" 
	d="
M72.427948,326.048340 
	C72.617813,325.484680 73.055298,324.888184 73.749741,324.162994 
	C74.025169,324.298035 74.043633,324.561768 74.084671,325.222412 
	C73.630020,325.751404 73.152802,325.883453 72.427948,326.048340 
z"/>
<path fill="#6BBEED" opacity="1.000000" stroke="none" 
	d="
M271.650879,311.322327 
	C271.726105,311.920044 271.614777,312.782806 271.278564,313.892029 
	C271.190521,313.288116 271.327393,312.437714 271.650879,311.322327 
z"/>
<path fill="#6BBEED" opacity="1.000000" stroke="none" 
	d="
M237.035385,323.200775 
	C237.279892,323.671417 237.517014,324.455933 237.706390,325.548584 
	C237.448441,325.076050 237.238220,324.295349 237.035385,323.200775 
z"/>
<path fill="#D66F83" opacity="1.000000" stroke="none" 
	d="
M238.981140,279.684937 
	C238.453369,279.568695 237.816315,279.190857 237.077362,278.538330 
	C237.607574,278.650208 238.239700,279.036774 238.981140,279.684937 
z"/>
<path fill="#6BBEED" opacity="1.000000" stroke="none" 
	d="
M222.566101,328.000366 
	C222.062714,328.173920 221.161209,328.350372 220.016663,328.304779 
	C220.571747,328.056244 221.369858,328.029755 222.566101,328.000366 
z"/>
<path fill="#4049AF" opacity="1.000000" stroke="none" 
	d="
M264.085327,289.257599 
	C264.445709,289.232971 265.010956,289.439087 265.787537,289.864685 
	C265.429291,289.885559 264.859741,289.686951 264.085327,289.257599 
z"/>
<path fill="#6BBEED" opacity="1.000000" stroke="none" 
	d="
M230.268280,308.919769 
	C230.451202,308.636414 230.918274,308.314056 231.689056,307.998413 
	C231.512634,308.297058 231.032532,308.588928 230.268280,308.919769 
z"/>
<path fill="#6BBEED" opacity="1.000000" stroke="none" 
	d="
M236.109070,315.961304 
	C236.324478,316.208435 236.537689,316.753143 236.720856,317.589783 
	C236.496170,317.340759 236.301514,316.799805 236.109070,315.961304 
z"/>
<path fill="#6CBFED" opacity="1.000000" stroke="none" 
	d="
M86.877228,285.543457 
	C86.841957,285.470917 87.149780,285.450256 87.149780,285.450256 
	C87.149780,285.450256 86.912491,285.616028 86.877228,285.543457 
z"/>
<path fill="#6BBEED" opacity="1.000000" stroke="none" 
	d="
M272.573242,303.345032 
	C272.650269,303.684662 272.565002,304.273010 272.298096,305.110992 
	C272.214630,304.771637 272.312775,304.182709 272.573242,303.345032 
z"/>
<path fill="#6CBFED" opacity="1.000000" stroke="none" 
	d="
M93.042160,288.187988 
	C93.235573,288.397949 93.446693,288.863586 93.633301,289.585205 
	C93.425819,289.375305 93.242844,288.909485 93.042160,288.187988 
z"/>
<path fill="#6BBEED" opacity="1.000000" stroke="none" 
	d="
M200.462616,298.695862 
	C200.318130,298.895325 200.227203,298.428925 200.193604,298.193481 
	C200.357239,297.770020 200.540924,297.569580 200.864090,297.222351 
	C200.880447,297.557495 200.743774,298.026947 200.462616,298.695862 
z"/>
<path fill="#6BBEED" opacity="1.000000" stroke="none" 
	d="
M252.477432,322.175964 
	C252.700760,322.355957 252.614349,322.583923 252.159393,322.806763 
	C252.067810,322.657959 252.193420,322.465393 252.477432,322.175964 
z"/>
<path fill="#6BBEED" opacity="1.000000" stroke="none" 
	d="
M216.244110,324.882874 
	C216.144974,324.983276 216.067307,324.497437 216.139923,324.262390 
	C216.440018,324.254272 216.483582,324.505981 216.244110,324.882874 
z"/>
<path fill="#6BBEED" opacity="1.000000" stroke="none" 
	d="
M243.828461,323.574646 
	C243.678802,323.696594 243.492371,323.596161 243.320740,323.231384 
	C243.447540,323.181000 243.599579,323.309387 243.828461,323.574646 
z"/>
<path fill="#6BBEED" opacity="1.000000" stroke="none" 
	d="
M252.150909,318.744720 
	C252.300919,318.786743 252.503876,319.088287 252.686676,319.667419 
	C252.512283,319.631409 252.358047,319.317841 252.150909,318.744720 
z"/>
<path fill="#D66F83" opacity="1.000000" stroke="none" 
	d="
M199.054016,241.686676 
	C198.864822,241.754074 198.582123,241.562119 198.148560,241.161194 
	C198.318634,241.110580 198.639587,241.268951 199.054016,241.686676 
z"/>
<path fill="#6BBEED" opacity="1.000000" stroke="none" 
	d="
M227.040161,309.352081 
	C227.247269,309.152863 227.428070,309.157867 227.870850,309.234375 
	C228.000061,309.614563 227.776947,309.829376 227.225861,309.958862 
	C226.988220,309.967316 227.013855,309.556305 227.040161,309.352081 
z"/>
<path fill="#6BBEED" opacity="1.000000" stroke="none" 
	d="
M228.998535,309.467285 
	C229.074615,309.188995 229.250122,309.135223 229.695511,309.028748 
	C229.958054,309.189484 229.950699,309.402924 229.914917,309.935852 
	C229.560287,310.156097 229.297455,309.968231 228.998535,309.467285 
z"/>
<path fill="#D66F83" opacity="1.000000" stroke="none" 
	d="
M187.740387,258.410278 
	C187.916824,258.321503 188.281357,258.484528 188.867249,258.853821 
	C188.701889,258.927429 188.315186,258.794739 187.740387,258.410278 
z"/>
<path fill="#6BBEED" opacity="1.000000" stroke="none" 
	d="
M244.885162,288.944153 
	C244.725723,288.898376 244.566483,288.346588 244.644226,287.610474 
	C244.882614,287.763458 244.884003,288.100800 244.885162,288.944153 
z"/>
<path fill="#7DADED" opacity="1.000000" stroke="none" 
	d="
M128.137695,267.846222 
	C129.473221,269.732391 130.808746,271.618561 132.144287,273.504730 
	C131.686249,273.815552 131.228210,274.126373 130.770172,274.437195 
	C129.758789,272.655060 128.747391,270.872955 127.797607,268.612732 
	C127.859222,268.134674 128.137695,267.846222 128.137695,267.846222 
z"/>
<path fill="#7DADED" opacity="1.000000" stroke="none" 
	d="
M127.715416,268.274353 
	C127.302551,268.252380 127.065323,268.052917 126.720032,267.631409 
	C126.580139,267.447205 126.869080,267.139954 127.019928,266.991699 
	C127.467918,266.974609 127.713760,267.170288 128.022995,267.638306 
	C128.137695,267.846222 127.859222,268.134674 127.715416,268.274353 
z"/>
<path fill="#EAC1B0" opacity="1.000000" stroke="none" 
	d="
M255.881622,326.657654 
	C255.285202,325.190735 254.732712,323.530945 255.087204,322.095062 
	C255.578979,320.103210 256.751923,318.279510 257.633240,316.383820 
	C259.360901,317.779053 261.271942,319.009857 262.735748,320.641785 
	C263.424500,321.409668 263.253510,322.948730 263.354797,324.434601 
	C260.935028,325.342133 258.632568,325.953369 255.881622,326.657654 
z"/>
<path fill="#6BC1F0" opacity="1.000000" stroke="none" 
	d="
M139.923950,325.969849 
	C140.371033,323.852875 141.219376,321.809021 142.123871,319.394653 
	C145.905060,319.540924 148.377060,317.925232 149.932617,314.194031 
	C153.469864,314.404449 156.884293,314.961761 160.598022,315.734558 
	C160.412582,319.686615 159.919739,323.422180 159.445343,327.160095 
	C158.954041,331.031189 156.538910,331.597168 153.382233,330.563904 
	C149.005569,329.131256 144.675339,327.556763 139.923950,325.969849 
z"/>
<path fill="#7CC8F2" opacity="1.000000" stroke="none" 
	d="
M207.127884,82.685631 
	C208.231720,77.104805 209.346542,71.838638 210.461365,66.572464 
	C211.145035,66.743446 211.828690,66.914429 212.512360,67.085403 
	C213.403366,73.177368 211.196960,78.507851 207.720245,83.519089 
	C207.684158,83.571091 207.401611,83.533539 207.319672,83.451920 
	C207.214157,83.346794 207.195145,83.154839 207.127884,82.685631 
z"/>
<path fill="#7CC8F2" opacity="1.000000" stroke="none" 
	d="
M240.316345,71.616180 
	C239.341202,75.250763 238.433945,78.506645 237.526688,81.762520 
	C237.118484,81.659592 236.710297,81.556664 236.302094,81.453728 
	C237.072174,76.555290 237.842239,71.656845 238.612320,66.758408 
	C239.202942,66.797020 239.793579,66.835632 240.384201,66.874245 
	C240.384201,68.328659 240.384201,69.783066 240.316345,71.616180 
z"/>
<path fill="#7CC8F2" opacity="1.000000" stroke="none" 
	d="
M229.904083,84.834526 
	C232.675583,86.344406 232.936615,91.781090 230.439865,92.565048 
	C229.708969,92.794540 227.437119,91.025436 227.521759,90.393326 
	C227.767639,88.556999 228.850189,86.832703 229.904083,84.834526 
z"/>
<path fill="#7CC8F2" opacity="1.000000" stroke="none" 
	d="
M123.057800,88.171585 
	C122.723717,89.479622 122.674232,90.612198 122.094734,91.294838 
	C121.482162,92.016441 120.364754,92.309494 119.467873,92.789749 
	C119.091637,91.949776 118.195213,90.906830 118.429947,90.305252 
	C119.403770,87.809517 120.719147,85.447044 121.909142,83.035660 
	C122.496010,83.280640 123.082886,83.525620 123.669754,83.770607 
	C123.482925,85.113152 123.296097,86.455696 123.057800,88.171585 
z"/>
<path fill="#7CC8F2" opacity="1.000000" stroke="none" 
	d="
M101.977020,77.980835 
	C102.629478,74.220970 103.281937,70.461105 103.934387,66.701241 
	C104.593346,66.844772 105.252296,66.988304 105.911255,67.131836 
	C106.787529,71.096558 105.187531,74.518112 102.329437,77.867340 
	C101.997559,77.998184 101.977020,77.980835 101.977020,77.980835 
z"/>
<path fill="#6BC1F0" opacity="1.000000" stroke="none" 
	d="
M106.057526,80.067688 
	C105.739914,80.434021 105.225975,80.580879 104.712036,80.727737 
	C104.819618,80.391113 104.927200,80.054497 105.240952,79.573608 
	C105.585152,79.568970 105.723167,79.708588 106.057526,80.067688 
z"/>
<path fill="#7CC8F2" opacity="1.000000" stroke="none" 
	d="
M102.006004,78.007851 
	C101.912285,78.026680 101.810127,78.035835 101.842491,78.012909 
	C101.977020,77.980835 101.997559,77.998184 102.006004,78.007851 
z"/>
<path fill="#FAFAFC" opacity="1.000000" stroke="none" 
	d="
M286.999207,278.206787 
	C286.538422,281.639954 286.077637,285.073120 285.572205,288.839020 
	C283.058472,288.417999 280.980713,288.069977 278.503265,287.696899 
	C272.990967,286.338623 267.878326,285.005432 262.149780,283.511597 
	C264.457428,276.697327 264.875793,269.024109 273.637054,266.095856 
	C273.977600,266.014709 273.939392,265.958313 273.960663,266.272400 
	C274.332397,266.741364 274.682892,266.896271 275.008423,267.035095 
	C274.983521,267.018982 274.928619,266.996490 274.928619,266.996490 
	C276.740936,267.679413 278.522552,268.467163 280.376129,269.009064 
	C281.652008,269.382050 283.027557,269.414093 284.537109,270.316315 
	C283.275452,274.125854 283.952301,276.543610 286.999207,278.206787 
z"/>
<path fill="#FAFAFC" opacity="1.000000" stroke="none" 
	d="
M273.991394,266.045837 
	C273.710236,265.102081 273.506378,264.087708 273.104248,263.159210 
	C271.572113,259.621704 272.153198,256.106659 275.358459,254.431381 
	C277.602905,253.258286 281.678101,252.887436 283.429688,254.187439 
	C285.411194,255.658035 286.774261,259.518341 286.478485,262.120361 
	C286.077881,265.644196 282.863251,267.493500 279.020935,267.135193 
	C277.879578,267.028778 276.765137,266.633759 275.283508,266.683716 
	C274.928619,266.996490 274.983521,267.018982 275.184998,266.647522 
	C274.904144,266.170135 274.421753,266.064240 273.939392,265.958313 
	C273.939392,265.958313 273.977600,266.014709 273.991394,266.045837 
z"/>
<path fill="#F0798E" opacity="1.000000" stroke="none" 
	d="
M287.376892,278.170227 
	C283.952301,276.543610 283.275452,274.125854 284.876038,270.674316 
	C287.953094,269.455566 290.731476,269.063019 292.574036,272.744232 
	C292.462219,276.041473 291.162811,278.117371 287.376892,278.170227 
z"/>
<path fill="#F7F7F9" opacity="1.000000" stroke="none" 
	d="
M68.637436,271.853668 
	C69.233307,272.225983 69.450340,272.730438 69.390640,273.804138 
	C66.248840,279.513214 64.174126,284.614105 69.851608,289.332703 
	C70.260895,290.353485 70.670189,291.374237 71.289635,292.919128 
	C69.879547,292.919128 68.827705,292.919128 67.390274,292.976929 
	C59.128422,289.337891 56.413940,296.252380 51.268658,301.669525 
	C51.469074,291.718018 47.242722,286.257629 37.934700,284.815460 
	C46.218842,281.452423 50.798553,276.272339 49.274128,266.582947 
	C54.780132,273.028046 60.733269,275.713715 68.637436,271.853668 
z"/>
<path fill="#FBF0F2" opacity="1.000000" stroke="none" 
	d="
M238.252686,293.939209 
	C238.114426,295.571014 237.754456,296.971222 236.806152,298.631714 
	C235.191574,297.755310 233.078430,295.946594 233.303055,295.583313 
	C236.377747,290.610413 231.805389,288.716858 229.872513,285.323517 
	C227.718384,286.703369 225.963516,287.827484 223.959671,289.111053 
	C225.820923,292.201874 227.824738,294.743988 228.919785,297.630859 
	C229.620758,299.478882 228.980133,301.835815 228.940948,303.964600 
	C228.940948,303.964600 228.992935,303.996765 228.618958,303.996582 
	C227.497299,304.080322 226.749634,304.164246 226.001968,304.248169 
	C226.001968,304.248169 225.547012,304.043640 225.305496,303.983582 
	C224.825333,303.140778 224.128235,302.012390 224.418015,301.627991 
	C227.834503,297.095917 224.440308,293.841919 222.147720,290.754639 
	C219.253265,286.856903 219.618149,284.407166 224.154709,282.534027 
	C225.789032,281.859192 227.252319,280.770142 229.147186,279.663666 
	C232.233047,284.541931 235.132019,289.124786 238.252686,293.939209 
z"/>
<path fill="#2C3A8F" opacity="1.000000" stroke="none" 
	d="
M69.941559,288.932373 
	C64.174126,284.614105 66.248840,279.513214 69.336433,274.112915 
	C73.010094,278.639618 71.548813,283.584930 69.941559,288.932373 
z"/>
<path fill="#424E77" opacity="1.000000" stroke="none" 
	d="
M243.146881,248.961731 
	C242.916656,250.203003 242.686401,251.444260 242.159546,252.504578 
	C241.819351,251.869202 241.775772,251.414780 241.807373,250.643890 
	C241.853546,249.896255 241.824539,249.465088 241.881683,248.571045 
	C241.639679,242.141174 241.311493,236.174149 240.526474,230.145462 
	C236.087692,230.112122 232.105728,230.140457 227.738770,230.149399 
	C227.097168,230.115402 226.840576,230.100784 226.584000,230.086166 
	C227.921341,229.464905 229.234253,228.383118 230.600708,228.310638 
	C234.364304,228.110992 238.150299,228.334030 242.368469,228.501633 
	C242.860062,228.936493 242.933533,229.254272 243.050507,230.266785 
	C243.096329,236.965134 243.121597,242.963425 243.146881,248.961731 
z"/>
<path fill="#7181A5" opacity="1.000000" stroke="none" 
	d="
M226.426071,230.451447 
	C226.840576,230.100784 227.097168,230.115402 227.689514,230.603058 
	C228.068878,237.708466 228.112503,244.340805 228.114105,251.300369 
	C228.082825,252.066254 228.093552,252.504913 228.104279,252.943573 
	C227.831589,253.150681 227.558899,253.357788 227.136047,253.774841 
	C226.746658,246.262100 226.507401,238.539413 226.426071,230.451447 
z"/>
<path fill="#7DADED" opacity="1.000000" stroke="none" 
	d="
M243.478973,248.861023 
	C243.121597,242.963425 243.096329,236.965134 243.115799,230.503235 
	C248.354324,233.497513 248.683701,242.976059 243.478973,248.861023 
z"/>
<path fill="#D5DCEB" opacity="1.000000" stroke="none" 
	d="
M228.560379,252.958176 
	C228.093552,252.504913 228.082825,252.066254 228.566040,251.311752 
	C233.284042,250.984055 237.508118,250.972198 241.732208,250.960327 
	C241.775772,251.414780 241.819351,251.869202 241.812088,252.663834 
	C237.513000,252.993607 233.264740,252.983185 228.560379,252.958176 
z"/>
<path fill="#EAF2FA" opacity="1.000000" stroke="none" 
	d="
M99.102272,237.697281 
	C99.228111,240.325226 99.353958,242.953186 98.850182,245.811890 
	C94.326828,245.634476 94.923836,248.493637 94.759872,250.799149 
	C94.759872,250.799149 94.714493,250.768494 94.687752,250.758087 
	C93.358116,249.514252 92.055229,248.280807 90.421227,246.733917 
	C89.848671,247.677979 88.930916,249.191238 88.022644,250.688858 
	C86.297485,248.532822 84.742996,246.590073 82.722015,244.064331 
	C83.623116,243.669952 85.072212,243.035736 87.014458,242.185684 
	C85.569321,241.229187 84.360939,240.429382 83.280273,239.714127 
	C85.568871,237.579269 87.700447,235.590912 90.099937,233.352631 
	C90.558167,234.716660 91.033028,236.130203 91.616119,237.865921 
	C93.033066,236.057632 94.158203,234.621765 95.622803,233.118042 
	C95.962257,233.050171 95.976860,233.012573 95.993912,233.421234 
	C96.183945,235.804398 95.486290,238.474838 99.102272,237.697281 
z"/>
<path fill="#F0798E" opacity="1.000000" stroke="none" 
	d="
M229.321472,303.976501 
	C228.980133,301.835815 229.620758,299.478882 228.919785,297.630859 
	C227.824738,294.743988 225.820923,292.201874 223.959671,289.111053 
	C225.963516,287.827484 227.718384,286.703369 229.872513,285.323517 
	C231.805389,288.716858 236.377747,290.610413 233.303055,295.583313 
	C233.078430,295.946594 235.191574,297.755310 236.596649,298.887604 
	C234.550964,300.584930 232.126480,302.286652 229.321472,303.976501 
z"/>
<path fill="#F0798E" opacity="1.000000" stroke="none" 
	d="
M226.236145,304.418884 
	C226.749634,304.164246 227.497299,304.080322 228.620026,303.966003 
	C228.153503,304.153625 227.311905,304.371613 226.236145,304.418884 
z"/>
<path fill="#81AFF0" opacity="1.000000" stroke="none" 
	d="
M95.117699,250.802170 
	C94.923836,248.493637 94.326828,245.634476 98.622742,246.071198 
	C97.841782,247.668228 96.658653,249.236710 95.117699,250.802170 
z"/>
<path fill="#81AFF0" opacity="1.000000" stroke="none" 
	d="
M99.079559,237.342468 
	C95.486290,238.474838 96.183945,235.804398 95.978897,233.429306 
	C96.983505,234.348373 98.020180,235.667999 99.079559,237.342468 
z"/>
<path fill="#FBF0F2" opacity="1.000000" stroke="none" 
	d="
M198.508118,243.093567 
	C199.279739,246.010345 199.881271,248.879517 199.906189,251.753708 
	C199.915344,252.809036 198.560287,253.876205 197.437042,255.026642 
	C195.409271,255.052277 193.772293,254.946152 192.134628,254.934021 
	C186.318161,254.890961 184.620743,252.713913 186.227875,247.097733 
	C186.451080,246.317734 187.252701,245.308960 187.967087,245.131058 
	C191.313309,244.297760 194.722717,243.718170 198.508118,243.093567 
M192.752151,252.766617 
	C193.841019,251.671616 195.057968,250.661880 195.897430,249.400864 
	C196.043716,249.181091 194.655212,247.329041 193.875397,247.252563 
	C192.818466,247.148895 190.732422,248.024811 190.729294,248.491562 
	C190.720200,249.837631 191.534378,251.189255 192.752151,252.766617 
z"/>
<path fill="#4652C0" opacity="1.000000" stroke="none" 
	d="
M273.960663,266.272400 
	C274.421753,266.064240 274.904144,266.170135 275.209930,266.663635 
	C274.682892,266.896271 274.332397,266.741364 273.960663,266.272400 
z"/>
<path fill="#FAFAFC" opacity="1.000000" stroke="none" 
	d="
M241.807373,250.643890 
	C237.508118,250.972198 233.284042,250.984055 228.608032,250.984528 
	C228.112503,244.340805 228.068878,237.708466 228.074524,230.622467 
	C232.105728,230.140457 236.087692,230.112122 240.466644,230.428207 
	C240.535355,231.232208 240.207062,231.691788 239.430817,232.124527 
	C237.520050,232.086517 236.031250,232.248062 234.599213,232.032440 
	C229.934982,231.330170 228.389297,233.460724 229.108368,238.180206 
	C229.148422,238.804626 229.169174,239.054077 229.157928,239.695435 
	C229.111801,241.674118 229.097687,243.260895 229.063660,245.247192 
	C229.040390,246.447968 229.037033,247.249237 229.361084,248.291718 
	C233.724167,248.699921 237.759857,248.866913 241.795532,249.033905 
	C241.824539,249.465088 241.853546,249.896255 241.807373,250.643890 
z"/>
<path fill="#D5DCEB" opacity="1.000000" stroke="none" 
	d="
M239.878769,232.151367 
	C240.207062,231.691788 240.535355,231.232208 240.923492,230.489883 
	C241.311493,236.174149 241.639679,242.141174 241.881683,248.571045 
	C237.759857,248.866913 233.724167,248.699921 229.787872,248.269501 
	C232.908585,247.635529 235.942398,247.336960 238.937668,246.816483 
	C239.384659,246.738785 239.650436,245.618286 240.027588,244.563385 
	C239.975235,242.491882 239.895325,240.837234 239.953171,239.058044 
	C240.148865,238.825211 240.274338,238.699371 240.251617,238.612061 
	C240.191925,238.382614 240.067749,238.169952 240.003464,237.534912 
	C239.984711,235.463272 239.931747,233.807312 239.878769,232.151367 
z"/>
<path fill="#F0798E" opacity="1.000000" stroke="none" 
	d="
M192.388687,252.652649 
	C191.534378,251.189255 190.720200,249.837631 190.729294,248.491562 
	C190.732422,248.024811 192.818466,247.148895 193.875397,247.252563 
	C194.655212,247.329041 196.043716,249.181091 195.897430,249.400864 
	C195.057968,250.661880 193.841019,251.671616 192.388687,252.652649 
z"/>
<path fill="#94B9F3" opacity="1.000000" stroke="none" 
	d="
M239.430817,232.124527 
	C239.931747,233.807312 239.984711,235.463272 239.548981,237.555878 
	C235.736542,237.930099 232.412796,237.867676 229.089066,237.805237 
	C228.389297,233.460724 229.934982,231.330170 234.599213,232.032440 
	C236.031250,232.248062 237.520050,232.086517 239.430817,232.124527 
z"/>
<path fill="#EAF2FA" opacity="1.000000" stroke="none" 
	d="
M229.108368,238.180206 
	C232.412796,237.867676 235.736542,237.930099 239.514771,237.971573 
	C240.067749,238.169952 240.191925,238.382614 240.251617,238.612061 
	C240.274338,238.699371 240.148865,238.825211 239.553436,239.034012 
	C236.723679,239.021133 234.678909,239.200287 234.898026,242.340668 
	C235.156204,246.040955 237.943100,244.791199 240.000031,244.980225 
	C239.650436,245.618286 239.384659,246.738785 238.937668,246.816483 
	C235.942398,247.336960 232.908585,247.635529 229.460480,248.028290 
	C229.037033,247.249237 229.040390,246.447968 229.476562,245.304535 
	C232.321259,245.202713 234.375778,244.966232 234.085587,241.731018 
	C233.775772,238.276642 231.246292,239.257904 229.189941,239.303528 
	C229.169174,239.054077 229.148422,238.804626 229.108368,238.180206 
z"/>
<path fill="#94B9F3" opacity="1.000000" stroke="none" 
	d="
M229.157928,239.695435 
	C231.246292,239.257904 233.775772,238.276642 234.085587,241.731018 
	C234.375778,244.966232 232.321259,245.202713 229.496490,244.905029 
	C229.097687,243.260895 229.111801,241.674118 229.157928,239.695435 
z"/>
<path fill="#94B9F3" opacity="1.000000" stroke="none" 
	d="
M240.027573,244.563370 
	C237.943100,244.791199 235.156204,246.040955 234.898026,242.340668 
	C234.678909,239.200287 236.723679,239.021133 239.415710,239.158554 
	C239.895325,240.837234 239.975235,242.491882 240.027573,244.563370 
z"/>
</svg>